v 0.000000 0.006500 0.000000
v 0.000000 0.006182 0.002009
v 0.000000 0.005259 0.003821
v 0.000000 0.003821 0.005259
v 0.000000 0.002009 0.006182
v 0.000000 0.000000 0.006500
v 0.000000 -0.002009 0.006182
v 0.000000 -0.003821 0.005259
v 0.000000 -0.005259 0.003821
v 0.000000 -0.006182 0.002009
v 0.000000 -0.006500 0.000000
v 0.000000 -0.006182 -0.002009
v 0.000000 -0.005259 -0.003821
v 0.000000 -0.003821 -0.005259
v 0.000000 -0.002009 -0.006182
v 0.000000 -0.000000 -0.006500
v 0.000000 0.002009 -0.006182
v 0.000000 0.003821 -0.005259
v 0.000000 0.005259 -0.003821
v 0.000000 0.006182 -0.002009
v 0.006452 0.006500 0.000000
v 0.006452 0.006182 0.002009
v 0.006452 0.005259 0.003821
v 0.006452 0.003821 0.005259
v 0.006452 0.002009 0.006182
v 0.006452 0.000000 0.006500
v 0.006452 -0.002009 0.006182
v 0.006452 -0.003821 0.005259
v 0.006452 -0.005259 0.003821
v 0.006452 -0.006182 0.002009
v 0.006452 -0.006500 0.000000
v 0.006452 -0.006182 -0.002009
v 0.006452 -0.005259 -0.003821
v 0.006452 -0.003821 -0.005259
v 0.006452 -0.002009 -0.006182
v 0.006452 -0.000000 -0.006500
v 0.006452 0.002009 -0.006182
v 0.006452 0.003821 -0.005259
v 0.006452 0.005259 -0.003821
v 0.006452 0.006182 -0.002009
v 0.012903 0.006500 0.000000
v 0.012903 0.006182 0.002009
v 0.012903 0.005259 0.003821
v 0.012903 0.003821 0.005259
v 0.012903 0.002009 0.006182
v 0.012903 0.000000 0.006500
v 0.012903 -0.002009 0.006182
v 0.012903 -0.003821 0.005259
v 0.012903 -0.005259 0.003821
v 0.012903 -0.006182 0.002009
v 0.012903 -0.006500 0.000000
v 0.012903 -0.006182 -0.002009
v 0.012903 -0.005259 -0.003821
v 0.012903 -0.003821 -0.005259
v 0.012903 -0.002009 -0.006182
v 0.012903 -0.000000 -0.006500
v 0.012903 0.002009 -0.006182
v 0.012903 0.003821 -0.005259
v 0.012903 0.005259 -0.003821
v 0.012903 0.006182 -0.002009
v 0.019355 0.006500 0.000000
v 0.019355 0.006182 0.002009
v 0.019355 0.005259 0.003821
v 0.019355 0.003821 0.005259
v 0.019355 0.002009 0.006182
v 0.019355 0.000000 0.006500
v 0.019355 -0.002009 0.006182
v 0.019355 -0.003821 0.005259
v 0.019355 -0.005259 0.003821
v 0.019355 -0.006182 0.002009
v 0.019355 -0.006500 0.000000
v 0.019355 -0.006182 -0.002009
v 0.019355 -0.005259 -0.003821
v 0.019355 -0.003821 -0.005259
v 0.019355 -0.002009 -0.006182
v 0.019355 -0.000000 -0.006500
v 0.019355 0.002009 -0.006182
v 0.019355 0.003821 -0.005259
v 0.019355 0.005259 -0.003821
v 0.019355 0.006182 -0.002009
v 0.026387 0.006065 0.000000
v 0.026387 0.005768 0.001874
v 0.026387 0.004906 0.003565
v 0.026387 0.003565 0.004906
v 0.026387 0.001874 0.005768
v 0.026387 0.000000 0.006065
v 0.026387 -0.001874 0.005768
v 0.026387 -0.003565 0.004906
v 0.026387 -0.004906 0.003565
v 0.026387 -0.005768 0.001874
v 0.026387 -0.006065 0.000000
v 0.026387 -0.005768 -0.001874
v 0.026387 -0.004906 -0.003565
v 0.026387 -0.003565 -0.004906
v 0.026387 -0.001874 -0.005768
v 0.026387 -0.000000 -0.006065
v 0.026387 0.001874 -0.005768
v 0.026387 0.003565 -0.004906
v 0.026387 0.004906 -0.003565
v 0.026387 0.005768 -0.001874
v 0.033484 0.005581 0.000000
v 0.033484 0.005308 0.001725
v 0.033484 0.004515 0.003280
v 0.033484 0.003280 0.004515
v 0.033484 0.001725 0.005308
v 0.033484 0.000000 0.005581
v 0.033484 -0.001725 0.005308
v 0.033484 -0.003280 0.004515
v 0.033484 -0.004515 0.003280
v 0.033484 -0.005308 0.001725
v 0.033484 -0.005581 0.000000
v 0.033484 -0.005308 -0.001725
v 0.033484 -0.004515 -0.003280
v 0.033484 -0.003280 -0.004515
v 0.033484 -0.001725 -0.005308
v 0.033484 -0.000000 -0.005581
v 0.033484 0.001725 -0.005308
v 0.033484 0.003280 -0.004515
v 0.033484 0.004515 -0.003280
v 0.033484 0.005308 -0.001725
v 0.040581 0.005097 0.000000
v 0.040581 0.004847 0.001575
v 0.040581 0.004123 0.002996
v 0.040581 0.002996 0.004123
v 0.040581 0.001575 0.004847
v 0.040581 0.000000 0.005097
v 0.040581 -0.001575 0.004847
v 0.040581 -0.002996 0.004123
v 0.040581 -0.004123 0.002996
v 0.040581 -0.004847 0.001575
v 0.040581 -0.005097 0.000000
v 0.040581 -0.004847 -0.001575
v 0.040581 -0.004123 -0.002996
v 0.040581 -0.002996 -0.004123
v 0.040581 -0.001575 -0.004847
v 0.040581 -0.000000 -0.005097
v 0.040581 0.001575 -0.004847
v 0.040581 0.002996 -0.004123
v 0.040581 0.004123 -0.002996
v 0.040581 0.004847 -0.001575
v 0.044581 0.005258 -0.000077
v 0.044581 0.005001 0.001428
v 0.044581 0.004254 0.002786
v 0.044581 0.003091 0.003863
v 0.044581 0.001625 0.004555
v 0.044581 0.000000 0.004794
v 0.044581 -0.001625 0.004555
v 0.044581 -0.003091 0.003863
v 0.044581 -0.004254 0.002786
v 0.044581 -0.005001 0.001428
v 0.044581 -0.005258 -0.000077
v 0.044581 -0.005001 -0.001583
v 0.044581 -0.004254 -0.002941
v 0.044581 -0.003091 -0.004018
v 0.044581 -0.001625 -0.004710
v 0.044581 -0.000000 -0.004948
v 0.044581 0.001625 -0.004710
v 0.044581 0.003091 -0.004018
v 0.044581 0.004254 -0.002941
v 0.044581 0.005001 -0.001583
v 0.047806 0.005581 -0.000174
v 0.047806 0.005308 0.001281
v 0.047806 0.004515 0.002594
v 0.047806 0.003280 0.003636
v 0.047806 0.001725 0.004305
v 0.047806 0.000000 0.004535
v 0.047806 -0.001725 0.004305
v 0.047806 -0.003280 0.003636
v 0.047806 -0.004515 0.002594
v 0.047806 -0.005308 0.001281
v 0.047806 -0.005581 -0.000174
v 0.047806 -0.005308 -0.001630
v 0.047806 -0.004515 -0.002942
v 0.047806 -0.003280 -0.003984
v 0.047806 -0.001725 -0.004653
v 0.047806 -0.000000 -0.004884
v 0.047806 0.001725 -0.004653
v 0.047806 0.003280 -0.003984
v 0.047806 0.004515 -0.002942
v 0.047806 0.005308 -0.001630
v 0.051032 0.005903 -0.000271
v 0.051032 0.005614 0.001135
v 0.051032 0.004776 0.002403
v 0.051032 0.003470 0.003409
v 0.051032 0.001824 0.004055
v 0.051032 0.000000 0.004277
v 0.051032 -0.001824 0.004055
v 0.051032 -0.003470 0.003409
v 0.051032 -0.004776 0.002403
v 0.051032 -0.005614 0.001135
v 0.051032 -0.005903 -0.000271
v 0.051032 -0.005614 -0.001676
v 0.051032 -0.004776 -0.002944
v 0.051032 -0.003470 -0.003951
v 0.051032 -0.001824 -0.004597
v 0.051032 -0.000000 -0.004819
v 0.051032 0.001824 -0.004597
v 0.051032 0.003470 -0.003951
v 0.051032 0.004776 -0.002944
v 0.051032 0.005614 -0.001676
v 0.054258 0.007129 -0.000503
v 0.054258 0.006780 0.000852
v 0.054258 0.005768 0.002075
v 0.054258 0.004190 0.003046
v 0.054258 0.002203 0.003669
v 0.054258 0.000000 0.003884
v 0.054258 -0.002203 0.003669
v 0.054258 -0.004190 0.003046
v 0.054258 -0.005768 0.002075
v 0.054258 -0.006780 0.000852
v 0.054258 -0.007129 -0.000503
v 0.054258 -0.006780 -0.001859
v 0.054258 -0.005768 -0.003082
v 0.054258 -0.004190 -0.004052
v 0.054258 -0.002203 -0.004676
v 0.054258 -0.000000 -0.004890
v 0.054258 0.002203 -0.004676
v 0.054258 0.004190 -0.004052
v 0.054258 0.005768 -0.003082
v 0.054258 0.006780 -0.001859
v 0.057484 0.008742 -0.000794
v 0.057484 0.008314 0.000512
v 0.057484 0.007072 0.001690
v 0.057484 0.005138 0.002625
v 0.057484 0.002701 0.003225
v 0.057484 0.000000 0.003432
v 0.057484 -0.002701 0.003225
v 0.057484 -0.005138 0.002625
v 0.057484 -0.007072 0.001690
v 0.057484 -0.008314 0.000512
v 0.057484 -0.008742 -0.000794
v 0.057484 -0.008314 -0.002099
v 0.057484 -0.007072 -0.003277
v 0.057484 -0.005138 -0.004212
v 0.057484 -0.002701 -0.004813
v 0.057484 -0.000000 -0.005019
v 0.057484 0.002701 -0.004813
v 0.057484 0.005138 -0.004212
v 0.057484 0.007072 -0.003277
v 0.057484 0.008314 -0.002099
v 0.060710 0.010355 -0.001084
v 0.060710 0.009848 0.000172
v 0.060710 0.008377 0.001305
v 0.060710 0.006086 0.002204
v 0.060710 0.003200 0.002782
v 0.060710 0.000000 0.002981
v 0.060710 -0.003200 0.002782
v 0.060710 -0.006086 0.002204
v 0.060710 -0.008377 0.001305
v 0.060710 -0.009848 0.000172
v 0.060710 -0.010355 -0.001084
v 0.060710 -0.009848 -0.002340
v 0.060710 -0.008377 -0.003473
v 0.060710 -0.006086 -0.004372
v 0.060710 -0.003200 -0.004949
v 0.060710 -0.000000 -0.005148
v 0.060710 0.003200 -0.004949
v 0.060710 0.006086 -0.004372
v 0.060710 0.008377 -0.003473
v 0.060710 0.009848 -0.002340
v 0.063935 0.012065 -0.001394
v 0.063935 0.011474 -0.000169
v 0.063935 0.009760 0.000935
v 0.063935 0.007091 0.001811
v 0.063935 0.003728 0.002374
v 0.063935 0.000000 0.002568
v 0.063935 -0.003728 0.002374
v 0.063935 -0.007091 0.001811
v 0.063935 -0.009760 0.000935
v 0.063935 -0.011474 -0.000169
v 0.063935 -0.012065 -0.001394
v 0.063935 -0.011474 -0.002618
v 0.063935 -0.009760 -0.003722
v 0.063935 -0.007091 -0.004598
v 0.063935 -0.003728 -0.005161
v 0.063935 -0.000000 -0.005355
v 0.063935 0.003728 -0.005161
v 0.063935 0.007091 -0.004598
v 0.063935 0.009760 -0.003722
v 0.063935 0.011474 -0.002618
v 0.067161 0.013839 -0.001716
v 0.067161 0.013161 -0.000512
v 0.067161 0.011196 0.000574
v 0.067161 0.008134 0.001436
v 0.067161 0.004276 0.001990
v 0.067161 0.000000 0.002181
v 0.067161 -0.004276 0.001990
v 0.067161 -0.008134 0.001436
v 0.067161 -0.011196 0.000574
v 0.067161 -0.013161 -0.000512
v 0.067161 -0.013839 -0.001716
v 0.067161 -0.013161 -0.002920
v 0.067161 -0.011196 -0.004007
v 0.067161 -0.008134 -0.004869
v 0.067161 -0.004276 -0.005422
v 0.067161 -0.000000 -0.005613
v 0.067161 0.004276 -0.005422
v 0.067161 0.008134 -0.004869
v 0.067161 0.011196 -0.004007
v 0.067161 0.013161 -0.002920
v 0.070387 0.015613 -0.002039
v 0.070387 0.014849 -0.000854
v 0.070387 0.012631 0.000214
v 0.070387 0.009177 0.001062
v 0.070387 0.004825 0.001606
v 0.070387 0.000000 0.001794
v 0.070387 -0.004825 0.001606
v 0.070387 -0.009177 0.001062
v 0.070387 -0.012631 0.000214
v 0.070387 -0.014849 -0.000854
v 0.070387 -0.015613 -0.002039
v 0.070387 -0.014849 -0.003223
v 0.070387 -0.012631 -0.004291
v 0.070387 -0.009177 -0.005139
v 0.070387 -0.004825 -0.005683
v 0.070387 -0.000000 -0.005871
v 0.070387 0.004825 -0.005683
v 0.070387 0.009177 -0.005139
v 0.070387 0.012631 -0.004291
v 0.070387 0.014849 -0.003223
v 0.073613 0.016823 -0.002265
v 0.073613 0.015999 -0.001100
v 0.073613 0.013610 -0.000050
v 0.073613 0.009888 0.000784
v 0.073613 0.005198 0.001319
v 0.073613 0.000000 0.001503
v 0.073613 -0.005198 0.001319
v 0.073613 -0.009888 0.000784
v 0.073613 -0.013610 -0.000050
v 0.073613 -0.015999 -0.001100
v 0.073613 -0.016823 -0.002265
v 0.073613 -0.015999 -0.003429
v 0.073613 -0.013610 -0.004479
v 0.073613 -0.009888 -0.005313
v 0.073613 -0.005198 -0.005848
v 0.073613 -0.000000 -0.006032
v 0.073613 0.005198 -0.005848
v 0.073613 0.009888 -0.005313
v 0.073613 0.013610 -0.004479
v 0.073613 0.015999 -0.003429
v 0.076839 0.017468 -0.002394
v 0.076839 0.016613 -0.001249
v 0.076839 0.014132 -0.000217
v 0.076839 0.010267 0.000602
v 0.076839 0.005398 0.001128
v 0.076839 0.000000 0.001310
v 0.076839 -0.005398 0.001128
v 0.076839 -0.010267 0.000602
v 0.076839 -0.014132 -0.000217
v 0.076839 -0.016613 -0.001249
v 0.076839 -0.017468 -0.002394
v 0.076839 -0.016613 -0.003538
v 0.076839 -0.014132 -0.004570
v 0.076839 -0.010267 -0.005390
v 0.076839 -0.005398 -0.005916
v 0.076839 -0.000000 -0.006097
v 0.076839 0.005398 -0.005916
v 0.076839 0.010267 -0.005390
v 0.076839 0.014132 -0.004570
v 0.076839 0.016613 -0.003538
v 0.080065 0.018113 -0.002523
v 0.080065 0.017226 -0.001398
v 0.080065 0.014654 -0.000384
v 0.080065 0.010646 0.000421
v 0.080065 0.005597 0.000938
v 0.080065 0.000000 0.001116
v 0.080065 -0.005597 0.000938
v 0.080065 -0.010646 0.000421
v 0.080065 -0.014654 -0.000384
v 0.080065 -0.017226 -0.001398
v 0.080065 -0.018113 -0.002523
v 0.080065 -0.017226 -0.003647
v 0.080065 -0.014654 -0.004661
v 0.080065 -0.010646 -0.005466
v 0.080065 -0.005597 -0.005983
v 0.080065 -0.000000 -0.006161
v 0.080065 0.005597 -0.005983
v 0.080065 0.010646 -0.005466
v 0.080065 0.014654 -0.004661
v 0.080065 0.017226 -0.003647
v 0.083290 0.018435 -0.002574
v 0.083290 0.017533 -0.001470
v 0.083290 0.014915 -0.000473
v 0.083290 0.010836 0.000317
v 0.083290 0.005697 0.000825
v 0.083290 0.000000 0.001000
v 0.083290 -0.005697 0.000825
v 0.083290 -0.010836 0.000317
v 0.083290 -0.014915 -0.000473
v 0.083290 -0.017533 -0.001470
v 0.083290 -0.018435 -0.002574
v 0.083290 -0.017533 -0.003679
v 0.083290 -0.014915 -0.004675
v 0.083290 -0.010836 -0.005466
v 0.083290 -0.005697 -0.005973
v 0.083290 -0.000000 -0.006148
v 0.083290 0.005697 -0.005973
v 0.083290 0.010836 -0.005466
v 0.083290 0.014915 -0.004675
v 0.083290 0.017533 -0.003679
v 0.086516 0.018274 -0.002510
v 0.086516 0.017380 -0.001425
v 0.086516 0.014784 -0.000447
v 0.086516 0.010741 0.000330
v 0.086516 0.005647 0.000828
v 0.086516 0.000000 0.001000
v 0.086516 -0.005647 0.000828
v 0.086516 -0.010741 0.000330
v 0.086516 -0.014784 -0.000447
v 0.086516 -0.017380 -0.001425
v 0.086516 -0.018274 -0.002510
v 0.086516 -0.017380 -0.003594
v 0.086516 -0.014784 -0.004573
v 0.086516 -0.010741 -0.005349
v 0.086516 -0.005647 -0.005848
v 0.086516 -0.000000 -0.006019
v 0.086516 0.005647 -0.005848
v 0.086516 0.010741 -0.005349
v 0.086516 0.014784 -0.004573
v 0.086516 0.017380 -0.003594
v 0.089742 0.018113 -0.002445
v 0.089742 0.017226 -0.001381
v 0.089742 0.014654 -0.000420
v 0.089742 0.010646 0.000342
v 0.089742 0.005597 0.000831
v 0.089742 0.000000 0.001000
v 0.089742 -0.005597 0.000831
v 0.089742 -0.010646 0.000342
v 0.089742 -0.014654 -0.000420
v 0.089742 -0.017226 -0.001381
v 0.089742 -0.018113 -0.002445
v 0.089742 -0.017226 -0.003510
v 0.089742 -0.014654 -0.004470
v 0.089742 -0.010646 -0.005232
v 0.089742 -0.005597 -0.005722
v 0.089742 -0.000000 -0.005890
v 0.089742 0.005597 -0.005722
v 0.089742 0.010646 -0.005232
v 0.089742 0.014654 -0.004470
v 0.089742 0.017226 -0.003510
v 0.092774 0.017613 -0.002323
v 0.092774 0.016751 -0.001284
v 0.092774 0.014249 -0.000347
v 0.092774 0.010353 0.000397
v 0.092774 0.005443 0.000874
v 0.092774 0.000000 0.001039
v 0.092774 -0.005443 0.000874
v 0.092774 -0.010353 0.000397
v 0.092774 -0.014249 -0.000347
v 0.092774 -0.016751 -0.001284
v 0.092774 -0.017613 -0.002323
v 0.092774 -0.016751 -0.003361
v 0.092774 -0.014249 -0.004298
v 0.092774 -0.010353 -0.005042
v 0.092774 -0.005443 -0.005519
v 0.092774 -0.000000 -0.005684
v 0.092774 0.005443 -0.005519
v 0.092774 0.010353 -0.005042
v 0.092774 0.014249 -0.004298
v 0.092774 0.016751 -0.003361
v 0.095355 0.016323 -0.002065
v 0.095355 0.015524 -0.001066
v 0.095355 0.013205 -0.000165
v 0.095355 0.009594 0.000550
v 0.095355 0.005044 0.001010
v 0.095355 0.000000 0.001168
v 0.095355 -0.005044 0.001010
v 0.095355 -0.009594 0.000550
v 0.095355 -0.013205 -0.000165
v 0.095355 -0.015524 -0.001066
v 0.095355 -0.016323 -0.002065
v 0.095355 -0.015524 -0.003063
v 0.095355 -0.013205 -0.003964
v 0.095355 -0.009594 -0.004679
v 0.095355 -0.005044 -0.005139
v 0.095355 -0.000000 -0.005297
v 0.095355 0.005044 -0.005139
v 0.095355 0.009594 -0.004679
v 0.095355 0.013205 -0.003964
v 0.095355 0.015524 -0.003063
v 0.097935 0.015032 -0.001806
v 0.097935 0.014297 -0.000848
v 0.097935 0.012161 0.000018
v 0.097935 0.008836 0.000704
v 0.097935 0.004645 0.001145
v 0.097935 0.000000 0.001297
v 0.097935 -0.004645 0.001145
v 0.097935 -0.008836 0.000704
v 0.097935 -0.012161 0.000018
v 0.097935 -0.014297 -0.000848
v 0.097935 -0.015032 -0.001806
v 0.097935 -0.014297 -0.002765
v 0.097935 -0.012161 -0.003630
v 0.097935 -0.008836 -0.004317
v 0.097935 -0.004645 -0.004758
v 0.097935 -0.000000 -0.004910
v 0.097935 0.004645 -0.004758
v 0.097935 0.008836 -0.004317
v 0.097935 0.012161 -0.003630
v 0.097935 0.014297 -0.002765
v 0.100387 0.013484 -0.001535
v 0.100387 0.012824 -0.000628
v 0.100387 0.010909 0.000190
v 0.100387 0.007926 0.000839
v 0.100387 0.004167 0.001256
v 0.100387 0.000000 0.001400
v 0.100387 -0.004167 0.001256
v 0.100387 -0.007926 0.000839
v 0.100387 -0.010909 0.000190
v 0.100387 -0.012824 -0.000628
v 0.100387 -0.013484 -0.001535
v 0.100387 -0.012824 -0.002443
v 0.100387 -0.010909 -0.003261
v 0.100387 -0.007926 -0.003910
v 0.100387 -0.004167 -0.004327
v 0.100387 -0.000000 -0.004471
v 0.100387 0.004167 -0.004327
v 0.100387 0.007926 -0.003910
v 0.100387 0.010909 -0.003261
v 0.100387 0.012824 -0.002443
v 0.102323 0.010903 -0.001213
v 0.102323 0.010370 -0.000405
v 0.102323 0.008821 0.000323
v 0.102323 0.006409 0.000901
v 0.102323 0.003369 0.001272
v 0.102323 0.000000 0.001400
v 0.102323 -0.003369 0.001272
v 0.102323 -0.006409 0.000901
v 0.102323 -0.008821 0.000323
v 0.102323 -0.010370 -0.000405
v 0.102323 -0.010903 -0.001213
v 0.102323 -0.010370 -0.002020
v 0.102323 -0.008821 -0.002749
v 0.102323 -0.006409 -0.003327
v 0.102323 -0.003369 -0.003698
v 0.102323 -0.000000 -0.003826
v 0.102323 0.003369 -0.003698
v 0.102323 0.006409 -0.003327
v 0.102323 0.008821 -0.002749
v 0.102323 0.010370 -0.002020
v 0.104258 0.008323 -0.000890
v 0.104258 0.007915 -0.000183
v 0.104258 0.006733 0.000456
v 0.104258 0.004892 0.000963
v 0.104258 0.002572 0.001288
v 0.104258 0.000000 0.001400
v 0.104258 -0.002572 0.001288
v 0.104258 -0.004892 0.000963
v 0.104258 -0.006733 0.000456
v 0.104258 -0.007915 -0.000183
v 0.104258 -0.008323 -0.000890
v 0.104258 -0.007915 -0.001598
v 0.104258 -0.006733 -0.002237
v 0.104258 -0.004892 -0.002743
v 0.104258 -0.002572 -0.003069
v 0.104258 -0.000000 -0.003181
v 0.104258 0.002572 -0.003069
v 0.104258 0.004892 -0.002743
v 0.104258 0.006733 -0.002237
v 0.104258 0.007915 -0.001598
v 0.106129 0.005806 -0.000581
v 0.106129 0.005522 0.000027
v 0.106129 0.004698 0.000576
v 0.106129 0.003413 0.001011
v 0.106129 0.001794 0.001291
v 0.106129 0.000000 0.001387
v 0.106129 -0.001794 0.001291
v 0.106129 -0.003413 0.001011
v 0.106129 -0.004698 0.000576
v 0.106129 -0.005522 0.000027
v 0.106129 -0.005806 -0.000581
v 0.106129 -0.005522 -0.001189
v 0.106129 -0.004698 -0.001737
v 0.106129 -0.003413 -0.002173
v 0.106129 -0.001794 -0.002452
v 0.106129 -0.000000 -0.002548
v 0.106129 0.001794 -0.002452
v 0.106129 0.003413 -0.002173
v 0.106129 0.004698 -0.001737
v 0.106129 0.005522 -0.001189
v 0.107419 0.003871 -0.000387
v 0.107419 0.003682 0.000121
v 0.107419 0.003132 0.000580
v 0.107419 0.002275 0.000944
v 0.107419 0.001196 0.001178
v 0.107419 0.000000 0.001258
v 0.107419 -0.001196 0.001178
v 0.107419 -0.002275 0.000944
v 0.107419 -0.003132 0.000580
v 0.107419 -0.003682 0.000121
v 0.107419 -0.003871 -0.000387
v 0.107419 -0.003682 -0.000895
v 0.107419 -0.003132 -0.001354
v 0.107419 -0.002275 -0.001718
v 0.107419 -0.001196 -0.001952
v 0.107419 -0.000000 -0.002032
v 0.107419 0.001196 -0.001952
v 0.107419 0.002275 -0.001718
v 0.107419 0.003132 -0.001354
v 0.107419 0.003682 -0.000895
v 0.108710 0.001935 -0.000194
v 0.108710 0.001841 0.000215
v 0.108710 0.001566 0.000584
v 0.108710 0.001138 0.000876
v 0.108710 0.000598 0.001064
v 0.108710 0.000000 0.001129
v 0.108710 -0.000598 0.001064
v 0.108710 -0.001138 0.000876
v 0.108710 -0.001566 0.000584
v 0.108710 -0.001841 0.000215
v 0.108710 -0.001935 -0.000194
v 0.108710 -0.001841 -0.000602
v 0.108710 -0.001566 -0.000971
v 0.108710 -0.001138 -0.001264
v 0.108710 -0.000598 -0.001451
v 0.108710 -0.000000 -0.001516
v 0.108710 0.000598 -0.001451
v 0.108710 0.001138 -0.001264
v 0.108710 0.001566 -0.000971
v 0.108710 0.001841 -0.000602
v 0.110000 0.000000 0.000000
v 0.110000 0.000000 0.000309
v 0.110000 0.000000 0.000588
v 0.110000 0.000000 0.000809
v 0.110000 0.000000 0.000951
v 0.110000 0.000000 0.001000
v 0.110000 -0.000000 0.000951
v 0.110000 -0.000000 0.000809
v 0.110000 -0.000000 0.000588
v 0.110000 -0.000000 0.000309
v 0.110000 -0.000000 0.000000
v 0.110000 -0.000000 -0.000309
v 0.110000 -0.000000 -0.000588
v 0.110000 -0.000000 -0.000809
v 0.110000 -0.000000 -0.000951
v 0.110000 -0.000000 -0.001000
v 0.110000 0.000000 -0.000951
v 0.110000 0.000000 -0.000809
v 0.110000 0.000000 -0.000588
v 0.110000 0.000000 -0.000309
v 0.000000 0.000000 0.000000
v 0.110000 0.000000 0.000000
vn -0.558925 0.828065 0.043718
vn -0.558925 0.774027 0.297464
vn -0.558925 0.644222 0.522093
vn -0.558925 0.451356 0.695615
vn -0.558925 0.214308 0.801046
vn -0.558925 -0.043718 0.828065
vn -0.558925 -0.297464 0.774027
vn -0.558925 -0.522093 0.644222
vn -0.558925 -0.695615 0.451356
vn -0.558925 -0.801046 0.214308
vn -0.558925 -0.828065 -0.043718
vn -0.558925 -0.774027 -0.297464
vn -0.558925 -0.644222 -0.522093
vn -0.558925 -0.451356 -0.695615
vn -0.558925 -0.214308 -0.801046
vn -0.558925 0.043718 -0.828065
vn -0.558925 0.297464 -0.774027
vn -0.558925 0.522093 -0.644222
vn -0.558925 0.695615 -0.451356
vn -0.558925 0.801046 -0.214308
vn 0.000000 1.000000 0.000000
vn 0.000000 0.951057 0.309017
vn 0.000000 0.809017 0.587785
vn 0.000000 0.587785 0.809017
vn 0.000000 0.309017 0.951057
vn 0.000000 0.000000 1.000000
vn 0.000000 -0.309017 0.951057
vn 0.000000 -0.587785 0.809017
vn 0.000000 -0.809017 0.587785
vn 0.000000 -0.951057 0.309017
vn 0.000000 -1.000000 0.000000
vn 0.000000 -0.951057 -0.309017
vn 0.000000 -0.809017 -0.587785
vn 0.000000 -0.587785 -0.809017
vn 0.000000 -0.309017 -0.951057
vn 0.000000 -0.000000 -1.000000
vn 0.000000 0.309017 -0.951057
vn 0.000000 0.587785 -0.809017
vn 0.000000 0.809017 -0.587785
vn 0.000000 0.951057 -0.309017
vn 0.000000 1.000000 0.000000
vn 0.000000 0.951057 0.309017
vn 0.000000 0.809017 0.587785
vn 0.000000 0.587785 0.809017
vn 0.000000 0.309017 0.951057
vn 0.000000 0.000000 1.000000
vn 0.000000 -0.309017 0.951057
vn 0.000000 -0.587785 0.809017
vn 0.000000 -0.809017 0.587785
vn 0.000000 -0.951057 0.309017
vn 0.000000 -1.000000 0.000000
vn 0.000000 -0.951057 -0.309017
vn 0.000000 -0.809017 -0.587785
vn 0.000000 -0.587785 -0.809017
vn 0.000000 -0.309017 -0.951057
vn 0.000000 -0.000000 -1.000000
vn 0.000000 0.309017 -0.951057
vn 0.000000 0.587785 -0.809017
vn 0.000000 0.809017 -0.587785
vn 0.000000 0.951057 -0.309017
vn 0.030920 0.999522 -0.000049
vn 0.030920 0.950617 0.308822
vn 0.030920 0.808659 0.587464
vn 0.030920 0.587544 0.808601
vn 0.030920 0.308916 0.950587
vn 0.030920 0.000049 0.999522
vn 0.030920 -0.308822 0.950617
vn 0.030920 -0.587464 0.808659
vn 0.030920 -0.808601 0.587544
vn 0.030920 -0.950587 0.308916
vn 0.030920 -0.999522 0.000049
vn 0.030920 -0.950617 -0.308822
vn 0.030920 -0.808659 -0.587464
vn 0.030920 -0.587544 -0.808601
vn 0.030920 -0.308916 -0.950587
vn 0.030920 -0.000049 -0.999522
vn 0.030920 0.308822 -0.950617
vn 0.030920 0.587464 -0.808659
vn 0.030920 0.808601 -0.587544
vn 0.030920 0.950587 -0.308916
vn 0.064916 0.997891 -0.000010
vn 0.064916 0.949054 0.308355
vn 0.064916 0.807317 0.586537
vn 0.064916 0.586554 0.807304
vn 0.064916 0.308375 0.949047
vn 0.064916 0.000010 0.997891
vn 0.064916 -0.308355 0.949054
vn 0.064916 -0.586537 0.807317
vn 0.064916 -0.807304 0.586554
vn 0.064916 -0.949047 0.308375
vn 0.064916 -0.997891 0.000010
vn 0.064916 -0.949054 -0.308355
vn 0.064916 -0.807317 -0.586537
vn 0.064916 -0.586554 -0.807304
vn 0.064916 -0.308375 -0.949047
vn 0.064916 -0.000010 -0.997891
vn 0.064916 0.308355 -0.949054
vn 0.064916 0.586537 -0.807317
vn 0.064916 0.807304 -0.586554
vn 0.064916 0.949047 -0.308375
vn 0.068024 0.997684 0.000000
vn 0.068024 0.948854 0.308301
vn 0.068024 0.807143 0.586424
vn 0.068024 0.586424 0.807143
vn 0.068024 0.308301 0.948854
vn 0.068024 0.000000 0.997684
vn 0.068024 -0.308301 0.948854
vn 0.068024 -0.586424 0.807143
vn 0.068024 -0.807143 0.586424
vn 0.068024 -0.948854 0.308301
vn 0.068024 -0.997684 0.000000
vn 0.068024 -0.948854 -0.308301
vn 0.068024 -0.807143 -0.586424
vn 0.068024 -0.586424 -0.807143
vn 0.068024 -0.308301 -0.948854
vn 0.068024 -0.000000 -0.997684
vn 0.068024 0.308301 -0.948854
vn 0.068024 0.586424 -0.807143
vn 0.068024 0.807143 -0.586424
vn 0.068024 0.948854 -0.308301
vn 0.015245 0.999882 0.002095
vn 0.025085 0.949095 0.313989
vn 0.040886 0.804562 0.592459
vn 0.057211 0.582756 0.810631
vn 0.068501 0.306521 0.949396
vn 0.071025 0.001900 0.997473
vn 0.063964 -0.303635 0.950639
vn 0.049635 -0.581950 0.811709
vn 0.032888 -0.805498 0.591685
vn 0.019549 -0.950251 0.310871
vn 0.014145 -0.999898 -0.002076
vn 0.017948 -0.949246 -0.314023
vn 0.028506 -0.804897 -0.592730
vn 0.040890 -0.583176 -0.811316
vn 0.049845 -0.306793 -0.950470
vn 0.051763 -0.001853 -0.998658
vn 0.045863 0.303949 -0.951584
vn 0.034440 0.582310 -0.812237
vn 0.022171 0.805725 -0.591874
vn 0.014468 0.950333 -0.310898
vn -0.067422 0.997714 0.004679
vn -0.045759 0.941495 0.333905
vn -0.007108 0.786481 0.617574
vn 0.034523 0.559953 0.827805
vn 0.065213 0.291399 0.954376
vn 0.075756 0.004025 0.997118
vn 0.063128 -0.284909 0.956474
vn 0.030721 -0.557342 0.829715
vn -0.011610 -0.787708 0.615939
vn -0.049234 -0.943697 0.327128
vn -0.068254 -0.997658 -0.004572
vn -0.062813 -0.940653 -0.333506
vn -0.038108 -0.785924 -0.617148
vn -0.006709 -0.560199 -0.828331
vn 0.017970 -0.291892 -0.956283
vn 0.026603 -0.004022 -0.999638
vn 0.016079 0.285377 -0.958281
vn -0.009984 0.557489 -0.830124
vn -0.041601 0.787035 -0.615504
vn -0.064817 0.942863 -0.326816
vn -0.096773 0.995291 0.005640
vn -0.070164 0.930488 0.359539
vn -0.022326 0.759938 0.649612
vn 0.027926 0.527572 0.849051
vn 0.064330 0.269536 0.960839
vn 0.077572 0.004029 0.996979
vn 0.064691 -0.262681 0.962712
vn 0.028275 -0.524183 0.851136
vn -0.022482 -0.760953 0.648417
vn -0.070780 -0.933307 0.352035
vn -0.097102 -0.995260 -0.005443
vn -0.091580 -0.928905 -0.358814
vn -0.061193 -0.758654 -0.648614
vn -0.023002 -0.527514 -0.849235
vn 0.006701 -0.269999 -0.962837
vn 0.017804 -0.004041 -0.999833
vn 0.006950 0.263147 -0.964731
vn -0.022779 0.524156 -0.851318
vn -0.061277 0.759672 -0.647412
vn -0.091747 0.931737 -0.351354
vn -0.223001 0.974773 0.009416
vn -0.164927 0.905064 0.391992
vn -0.070329 0.722828 0.687440
vn 0.020131 0.489035 0.872032
vn 0.079335 0.245943 0.966032
vn 0.096686 0.005978 0.995297
vn 0.070176 -0.235243 0.969400
vn 0.002898 -0.482056 0.876136
vn -0.091925 -0.721239 0.686560
vn -0.182581 -0.906692 0.380228
vn -0.226483 -0.973980 -0.008244
vn -0.205522 -0.898548 -0.387779
vn -0.141115 -0.717639 -0.681969
vn -0.069785 -0.487753 -0.870188
vn -0.019725 -0.246413 -0.968964
vn -0.004842 -0.005969 -0.999970
vn -0.028375 0.235468 -0.971468
vn -0.085096 0.479894 -0.873190
vn -0.158424 0.714893 -0.681050
vn -0.216818 0.900324 -0.377368
vn -0.393224 0.919270 0.017806
vn -0.298831 0.842863 0.447529
vn -0.141463 0.648511 0.747945
vn 0.002840 0.421226 0.906951
vn 0.094528 0.206598 0.973849
vn 0.124771 0.007467 0.992157
vn 0.093231 -0.192278 0.976902
vn -0.000527 -0.410023 0.912075
vn -0.148898 -0.645586 0.749031
vn -0.309726 -0.848130 0.429819
vn -0.396455 -0.917944 -0.014206
vn -0.364034 -0.823679 -0.434778
vn -0.257224 -0.632844 -0.730304
vn -0.142851 -0.416147 -0.898006
vn -0.063467 -0.206660 -0.976352
vn -0.036210 -0.007515 -0.999316
vn -0.064942 0.192339 -0.979177
vn -0.146043 0.405005 -0.902575
vn -0.262722 0.629497 -0.731239
vn -0.369796 0.829179 -0.419181
vn -0.438273 0.898542 0.023207
vn -0.317047 0.793659 0.519218
vn -0.132376 0.567481 0.812676
vn 0.016986 0.347992 0.937344
vn 0.104950 0.165487 0.980612
vn 0.134012 0.005788 0.990963
vn 0.107010 -0.153718 0.982303
vn 0.020802 -0.336836 0.941334
vn -0.129901 -0.562494 0.816533
vn -0.322434 -0.801395 0.503788
vn -0.441225 -0.897239 -0.016814
vn -0.397613 -0.768947 -0.500623
vn -0.270104 -0.550241 -0.790113
vn -0.149578 -0.343161 -0.927290
vn -0.071645 -0.165586 -0.983589
vn -0.044712 -0.005840 -0.998983
vn -0.069922 0.153943 -0.985603
vn -0.146697 0.332688 -0.931557
vn -0.268536 0.545818 -0.793707
vn -0.400239 0.776515 -0.486654
vn -0.448320 0.893537 0.024503
vn -0.301186 0.752375 0.585849
vn -0.105367 0.495251 0.862336
vn 0.030681 0.288947 0.956853
vn 0.105021 0.134377 0.985349
vn 0.128936 0.004025 0.991645
vn 0.106493 -0.125922 0.986308
vn 0.033727 -0.279744 0.959482
vn -0.102276 -0.488257 0.866686
vn -0.305744 -0.757852 0.576351
vn -0.451799 -0.891997 -0.014782
vn -0.395961 -0.725623 -0.562749
vn -0.257909 -0.480122 -0.838430
vn -0.145583 -0.285336 -0.947306
vn -0.078407 -0.134487 -0.987808
vn -0.055873 -0.004086 -0.998430
vn -0.077029 0.126037 -0.989030
vn -0.142924 0.276535 -0.950316
vn -0.255385 0.473755 -0.842813
vn -0.397800 0.730845 -0.554635
vn -0.465728 0.884537 0.026317
vn -0.292013 0.709451 0.641411
vn -0.088449 0.433822 0.896647
vn 0.035356 0.244542 0.968994
vn 0.099503 0.112195 0.988692
vn 0.119808 0.002890 0.992793
vn 0.100663 -0.106015 0.989256
vn 0.037927 -0.237270 0.970703
vn -0.084957 -0.426564 0.900459
vn -0.294920 -0.712828 0.636316
vn -0.469167 -0.883026 -0.012166
vn -0.400828 -0.680365 -0.613548
vn -0.255922 -0.419879 -0.870750
vn -0.152636 -0.241280 -0.958377
vn -0.094287 -0.112082 -0.989216
vn -0.075099 -0.002924 -0.997172
vn -0.093203 0.105919 -0.989997
vn -0.150398 0.234333 -0.960452
vn -0.253208 0.413328 -0.874669
vn -0.402028 0.683461 -0.609306
vn -0.472614 0.880810 0.028464
vn -0.274466 0.670644 0.689134
vn -0.068564 0.383543 0.920974
vn 0.043136 0.210917 0.976552
vn 0.098907 0.095914 0.990463
vn 0.116349 0.002168 0.993206
vn 0.099747 -0.091228 0.990822
vn 0.045142 -0.205132 0.977693
vn -0.065155 -0.376665 0.924055
vn -0.275526 -0.672200 0.687191
vn -0.475742 -0.879531 -0.009782
vn -0.394103 -0.641143 -0.658498
vn -0.244985 -0.371569 -0.895499
vn -0.150341 -0.208247 -0.966453
vn -0.099130 -0.095762 -0.990456
vn -0.082569 -0.002177 -0.996583
vn -0.098381 0.091119 -0.990968
vn -0.148677 0.202739 -0.967880
vn -0.242528 0.365420 -0.898693
vn -0.394713 0.642561 -0.656748
vn -0.411955 0.910718 0.029751
vn -0.221527 0.642226 0.733806
vn -0.043338 0.342941 0.938357
vn 0.044620 0.185193 0.981689
vn 0.088056 0.083686 0.992594
vn 0.102259 0.001492 0.994757
vn 0.090688 -0.080420 0.992627
vn 0.050468 -0.181006 0.982186
vn -0.032724 -0.337550 0.940739
vn -0.207612 -0.645340 0.735141
vn -0.410801 -0.911646 -0.012041
vn -0.331402 -0.620321 -0.710897
vn -0.197543 -0.335432 -0.921120
vn -0.121047 -0.183671 -0.975506
vn -0.080613 -0.083646 -0.993230
vn -0.067010 -0.001500 -0.997751
vn -0.078113 0.080441 -0.993694
vn -0.115822 0.179856 -0.976851
vn -0.189172 0.331223 -0.924395
vn -0.322804 0.624546 -0.711154
vn -0.272115 0.962068 0.019431
vn -0.131752 0.627145 0.767679
vn -0.015021 0.315533 0.948796
vn 0.038236 0.168465 0.984966
vn 0.064570 0.075800 0.995030
vn 0.073408 0.000867 0.997302
vn 0.066716 -0.073897 0.995032
vn 0.042930 -0.165983 0.985194
vn -0.006309 -0.312003 0.950060
vn -0.115778 -0.627857 0.769670
vn -0.267718 -0.963448 -0.009708
vn -0.210342 -0.617613 -0.757833
vn -0.117801 -0.312920 -0.942446
vn -0.069774 -0.168051 -0.983306
vn -0.044863 -0.075851 -0.996109
vn -0.036344 -0.000874 -0.999339
vn -0.042789 0.073968 -0.996342
vn -0.065385 0.165723 -0.984002
vn -0.110240 0.309964 -0.944336
vn -0.198914 0.619501 -0.759376
vn -0.191128 0.981500 0.011311
vn -0.079408 0.612609 0.786387
vn 0.000668 0.298511 0.954406
vn 0.036019 0.158472 0.986706
vn 0.053430 0.071142 0.996034
vn 0.058880 0.000607 0.998265
vn 0.053517 -0.069818 0.996123
vn 0.036237 -0.156748 0.986974
vn 0.001135 -0.295885 0.955223
vn -0.079033 -0.610943 0.787720
vn -0.191803 -0.981415 -0.005957
vn -0.141282 -0.608100 -0.781188
vn -0.075438 -0.297527 -0.951728
vn -0.042896 -0.158388 -0.986445
vn -0.026279 -0.071206 -0.997115
vn -0.021013 -0.000608 -0.999779
vn -0.026199 0.069882 -0.997211
vn -0.042701 0.156672 -0.986727
vn -0.075042 0.294937 -0.952566
vn -0.141020 0.606470 -0.782501
vn -0.147169 0.989061 0.010004
vn -0.062249 0.596727 0.800026
vn 0.000949 0.284897 0.958558
vn 0.028570 0.150683 0.988169
vn 0.042438 0.067541 0.996814
vn 0.047123 0.000472 0.998889
vn 0.043504 -0.066506 0.996837
vn 0.030893 -0.149317 0.988307
vn 0.005350 -0.282778 0.959170
vn -0.052389 -0.595664 0.801523
vn -0.141611 -0.989900 -0.006584
vn -0.105068 -0.594210 -0.797418
vn -0.052360 -0.284393 -0.957277
vn -0.026685 -0.150664 -0.988225
vn -0.013365 -0.067592 -0.997624
vn -0.008816 -0.000477 -0.999961
vn -0.012337 0.066555 -0.997707
vn -0.024495 0.149327 -0.988484
vn -0.048457 0.282411 -0.958069
vn -0.098050 0.593580 -0.798780
vn -0.027897 0.999601 0.004403
vn -0.017711 0.586518 0.809743
vn 0.000496 0.275630 0.961264
vn 0.009929 0.145430 0.989319
vn 0.015342 0.065068 0.997763
vn 0.017586 0.000230 0.999845
vn 0.016824 -0.064563 0.997772
vn 0.013132 -0.144762 0.989379
vn 0.006524 -0.274573 0.961544
vn -0.003217 -0.585759 0.810479
vn -0.018207 -0.999829 -0.003389
vn -0.012476 -0.586515 -0.809843
vn 0.004648 -0.275618 -0.961256
vn 0.013967 -0.145427 -0.989270
vn 0.019356 -0.065069 -0.997693
vn 0.021583 -0.000237 -0.999767
vn 0.020786 0.064550 -0.997698
vn 0.017006 0.144742 -0.989323
vn 0.010092 0.274543 -0.961522
vn -0.001793 0.585719 -0.810512
vn 0.050778 0.998708 0.001974
vn 0.016543 0.581783 0.813176
vn 0.002987 0.271860 0.962332
vn 0.000299 0.143288 0.989681
vn -0.000148 0.064039 0.997947
vn -0.000170 0.000097 1.000000
vn -0.000151 -0.063827 0.997961
vn 0.000291 -0.143010 0.989721
vn 0.002968 -0.271416 0.962457
vn 0.016519 -0.581368 0.813473
vn 0.050840 -0.998706 -0.001152
vn 0.049017 -0.581148 -0.812320
vn 0.041445 -0.271622 -0.961511
vn 0.039855 -0.143173 -0.988895
vn 0.039739 -0.063988 -0.997159
vn 0.039799 -0.000097 -0.999208
vn 0.039736 0.063776 -0.997173
vn 0.039848 0.142895 -0.988935
vn 0.041431 0.271179 -0.961637
vn 0.049005 0.580734 -0.812617
vn 0.104105 0.994566 0.001046
vn 0.035535 0.578718 0.814753
vn 0.005913 0.269855 0.962883
vn -0.002846 0.142154 0.989840
vn -0.005907 0.063494 0.997965
vn -0.006438 0.000032 0.999979
vn -0.005054 -0.063423 0.997974
vn -0.000947 -0.142062 0.989857
vn 0.009702 -0.269696 0.962897
vn 0.045398 -0.578167 0.814655
vn 0.109554 -0.993979 0.002018
vn 0.085467 -0.577033 -0.812237
vn 0.064087 -0.269316 -0.960917
vn 0.056901 -0.141932 -0.988240
vn 0.054319 -0.063408 -0.996508
vn 0.053898 -0.000040 -0.998546
vn 0.055138 0.063317 -0.996469
vn 0.058699 0.141794 -0.988154
vn 0.067529 0.269018 -0.960765
vn 0.093121 0.575985 -0.812139
vn 0.303159 0.952939 -0.001727
vn 0.119611 0.575142 0.809262
vn 0.022063 0.270901 0.962354
vn -0.012896 0.142763 0.989673
vn -0.027512 0.063654 0.997593
vn -0.030956 -0.000201 0.999521
vn -0.024953 -0.064099 0.997632
vn -0.007169 -0.143359 0.989645
vn 0.033480 -0.271697 0.961800
vn 0.146873 -0.572029 0.806977
vn 0.314602 -0.949005 0.020371
vn 0.229714 -0.564311 -0.792959
vn 0.155074 -0.267712 -0.950938
vn 0.124914 -0.141682 -0.981999
vn 0.111747 -0.063307 -0.991718
vn 0.108613 0.000159 -0.994084
vn 0.114131 0.063623 -0.991426
vn 0.130102 0.141959 -0.981286
vn 0.164713 0.267543 -0.949363
vn 0.248558 0.558443 -0.791429
vn 0.443585 0.896189 0.008837
vn 0.205374 0.574155 0.792570
vn 0.045137 0.278220 0.959456
vn -0.015062 0.147039 0.989016
vn -0.041417 0.065480 0.996994
vn -0.049141 -0.000411 0.998792
vn -0.041275 -0.066378 0.996940
vn -0.014705 -0.148218 0.988845
vn 0.045911 -0.280035 0.958891
vn 0.205968 -0.575240 0.791629
vn 0.442509 -0.896513 0.021207
vn 0.348178 -0.549057 -0.759808
vn 0.230674 -0.270533 -0.934666
vn 0.179738 -0.144529 -0.973039
vn 0.156168 -0.064689 -0.985610
vn 0.149113 0.000407 -0.988820
vn 0.156293 0.065572 -0.985532
vn 0.180039 0.145661 -0.972815
vn 0.231268 0.272205 -0.934034
vn 0.348541 0.550036 -0.758933
vn 0.487880 0.872900 0.004297
vn 0.240459 0.582284 0.776611
vn 0.063536 0.288677 0.955316
vn -0.005814 0.153183 0.988181
vn -0.036345 0.068242 0.997007
vn -0.045067 -0.000520 0.998984
vn -0.035380 -0.069380 0.996963
vn -0.003533 -0.154657 0.987962
vn 0.068270 -0.290723 0.954369
vn 0.248581 -0.580753 0.775199
vn 0.486989 -0.872983 0.027255
vn 0.384378 -0.553476 -0.738862
vn 0.256160 -0.279187 -0.925439
vn 0.198161 -0.150033 -0.968619
vn 0.171080 -0.067257 -0.982959
vn 0.163162 0.000486 -0.986599
vn 0.171929 0.068293 -0.982739
vn 0.200083 0.151269 -0.968031
vn 0.259809 0.280580 -0.923999
vn 0.389883 0.550946 -0.737869
vn 0.681227 0.731933 -0.014298
vn 0.414398 0.557889 0.719051
vn 0.163456 0.299581 0.939964
vn 0.047106 0.161499 0.985748
vn -0.005437 0.072038 0.997387
vn -0.019469 -0.000880 0.999810
vn -0.000364 -0.073937 0.997263
vn 0.058628 -0.163693 0.984768
vn 0.184291 -0.300517 0.935802
vn 0.435523 -0.541375 0.719189
vn 0.677537 -0.733636 0.052175
vn 0.557131 -0.511778 -0.653979
vn 0.391402 -0.279334 -0.876799
vn 0.303416 -0.154057 -0.940322
vn 0.260271 -0.069658 -0.963019
vn 0.248240 0.000631 -0.968698
vn 0.264144 0.070861 -0.961877
vn 0.311477 0.154818 -0.937557
vn 0.403853 0.277418 -0.871746
vn 0.568049 0.494266 -0.658044
vn 0.797411 0.603417 0.004839
vn 0.576758 0.514839 0.634264
vn 0.278129 0.315188 0.907359
vn 0.108280 0.175600 0.978489
vn 0.026633 0.078686 0.996544
vn 0.002494 -0.001515 0.999996
vn 0.027983 -0.081955 0.996243
vn 0.111391 -0.179524 0.977427
vn 0.282467 -0.319035 0.904671
vn 0.573396 -0.512649 0.639067
vn 0.795421 -0.605244 0.031368
vn 0.695858 -0.455195 -0.555500
vn 0.516349 -0.279922 -0.809338
vn 0.399991 -0.161350 -0.902205
vn 0.337725 -0.073873 -0.938341
vn 0.318351 0.001438 -0.947972
vn 0.338760 0.076869 -0.937727
vn 0.402086 0.164606 -0.900684
vn 0.518751 0.282768 -0.806809
vn 0.694402 0.453511 -0.558690
vn 0.798915 0.601433 -0.003600
vn 0.612467 0.535922 0.581096
vn 0.321337 0.350220 0.879823
vn 0.131706 0.200081 0.970887
vn 0.035442 0.089925 0.995318
vn 0.006694 -0.002613 0.999974
vn 0.037713 -0.095497 0.994715
vn 0.136634 -0.206354 0.968891
vn 0.326565 -0.354899 0.876015
vn 0.605905 -0.531860 0.591612
vn 0.796306 -0.604056 0.031819
vn 0.715345 -0.476708 -0.510912
vn 0.542960 -0.309613 -0.780599
vn 0.416025 -0.182919 -0.890766
vn 0.343808 -0.084227 -0.935255
vn 0.320942 0.002469 -0.947096
vn 0.345492 0.089286 -0.934164
vn 0.419197 0.188036 -0.888209
vn 0.545785 0.313097 -0.777232
vn 0.712552 0.473257 -0.517975
vn 0.816076 0.577814 -0.012291
vn 0.682481 0.542155 0.490192
vn 0.424319 0.392719 0.815920
vn 0.213782 0.237232 0.947638
vn 0.094461 0.108474 0.989601
vn 0.057635 -0.003881 0.998330
vn 0.097604 -0.116445 0.988390
vn 0.219262 -0.244790 0.944459
vn 0.425784 -0.395305 0.813905
vn 0.670817 -0.536769 0.511746
vn 0.812669 -0.581931 0.030425
vn 0.754538 -0.489695 -0.436889
vn 0.601117 -0.346100 -0.720328
vn 0.464246 -0.214426 -0.859358
vn 0.377969 -0.100580 -0.920338
vn 0.349523 0.003526 -0.936921
vn 0.379966 0.107539 -0.918728
vn 0.467424 0.220434 -0.856110
vn 0.602281 0.348057 -0.718410
vn 0.750070 0.483445 -0.451304
vn 0.830085 0.557410 -0.015930
vn 0.743829 0.545909 0.385618
vn 0.535897 0.444865 0.717572
vn 0.308859 0.293174 0.904795
vn 0.155150 0.137405 0.978289
vn 0.105716 -0.008981 0.994356
vn 0.162778 -0.154534 0.974486
vn 0.318440 -0.304421 0.897733
vn 0.534426 -0.443683 0.719399
vn 0.732504 -0.539542 0.415130
vn 0.827949 -0.560194 0.026136
vn 0.790519 -0.502478 -0.350136
vn 0.664724 -0.393704 -0.634932
vn 0.520211 -0.262560 -0.812676
vn 0.413202 -0.126195 -0.901853
vn 0.376401 0.008388 -0.926419
vn 0.418442 0.141382 -0.897172
vn 0.526006 0.271832 -0.805869
vn 0.664415 0.393328 -0.635489
vn 0.785077 0.495215 -0.372042
vn 0.829853 0.557075 -0.031822
vn 0.789917 0.572244 0.220380
vn 0.668273 0.557301 0.492775
vn 0.471345 0.487837 0.734744
vn 0.260536 0.368408 0.892410
vn 0.112405 -0.184391 0.976404
vn 0.250584 -0.344413 0.904758
vn 0.452577 -0.464959 0.760912
vn 0.646108 -0.539240 0.540153
vn 0.774140 -0.564622 0.286198
vn 0.826555 -0.561687 0.036272
vn 0.813611 -0.544152 -0.204781
vn 0.741433 -0.508232 -0.438152
vn 0.620437 -0.442808 -0.647286
vn 0.482087 -0.345191 -0.805255
vn 0.376711 0.185111 -0.907647
vn 0.476737 0.323344 -0.817417
vn 0.610261 0.421991 -0.670451
vn 0.730163 0.489577 -0.476629
vn 0.806683 0.530473 -0.260503
vn 0.828916 0.557800 -0.041922
vn 0.821452 0.568546 0.044396
vn 0.779855 0.608643 0.146221
vn 0.687211 0.677754 0.261515
vn 0.515224 0.777178 0.361302
vn 0.464855 0.012837 0.885294
vn 0.240882 -0.871860 0.426422
vn 0.544340 -0.763756 0.346946
vn 0.711169 -0.659708 0.242947
vn 0.792292 -0.594635 0.136684
vn 0.824889 -0.563636 0.043269
vn 0.825726 -0.562431 -0.042991
vn 0.796618 -0.589623 -0.133207
vn 0.726568 -0.647607 -0.229574
vn 0.587940 -0.743092 -0.319597
vn 0.649937 -0.005970 -0.759964
vn 0.348694 0.853268 -0.387746
vn 0.609276 0.732652 -0.303320
vn 0.744086 0.633280 -0.212822
vn 0.806617 0.577742 -0.124833
vn -1.000000 0.000000 0.000000
vn 0.000000 0.000000 0.000000
f 1//1 2//2 22//22
f 1//1 22//22 21//21
f 2//2 3//3 23//23
f 2//2 23//23 22//22
f 3//3 4//4 24//24
f 3//3 24//24 23//23
f 4//4 5//5 25//25
f 4//4 25//25 24//24
f 5//5 6//6 26//26
f 5//5 26//26 25//25
f 6//6 7//7 27//27
f 6//6 27//27 26//26
f 7//7 8//8 28//28
f 7//7 28//28 27//27
f 8//8 9//9 29//29
f 8//8 29//29 28//28
f 9//9 10//10 30//30
f 9//9 30//30 29//29
f 10//10 11//11 31//31
f 10//10 31//31 30//30
f 11//11 12//12 32//32
f 11//11 32//32 31//31
f 12//12 13//13 33//33
f 12//12 33//33 32//32
f 13//13 14//14 34//34
f 13//13 34//34 33//33
f 14//14 15//15 35//35
f 14//14 35//35 34//34
f 15//15 16//16 36//36
f 15//15 36//36 35//35
f 16//16 17//17 37//37
f 16//16 37//37 36//36
f 17//17 18//18 38//38
f 17//17 38//38 37//37
f 18//18 19//19 39//39
f 18//18 39//39 38//38
f 19//19 20//20 40//40
f 19//19 40//40 39//39
f 20//20 1//1 21//21
f 20//20 21//21 40//40
f 21//21 22//22 42//42
f 21//21 42//42 41//41
f 22//22 23//23 43//43
f 22//22 43//43 42//42
f 23//23 24//24 44//44
f 23//23 44//44 43//43
f 24//24 25//25 45//45
f 24//24 45//45 44//44
f 25//25 26//26 46//46
f 25//25 46//46 45//45
f 26//26 27//27 47//47
f 26//26 47//47 46//46
f 27//27 28//28 48//48
f 27//27 48//48 47//47
f 28//28 29//29 49//49
f 28//28 49//49 48//48
f 29//29 30//30 50//50
f 29//29 50//50 49//49
f 30//30 31//31 51//51
f 30//30 51//51 50//50
f 31//31 32//32 52//52
f 31//31 52//52 51//51
f 32//32 33//33 53//53
f 32//32 53//53 52//52
f 33//33 34//34 54//54
f 33//33 54//54 53//53
f 34//34 35//35 55//55
f 34//34 55//55 54//54
f 35//35 36//36 56//56
f 35//35 56//56 55//55
f 36//36 37//37 57//57
f 36//36 57//57 56//56
f 37//37 38//38 58//58
f 37//37 58//58 57//57
f 38//38 39//39 59//59
f 38//38 59//59 58//58
f 39//39 40//40 60//60
f 39//39 60//60 59//59
f 40//40 21//21 41//41
f 40//40 41//41 60//60
f 41//41 42//42 62//62
f 41//41 62//62 61//61
f 42//42 43//43 63//63
f 42//42 63//63 62//62
f 43//43 44//44 64//64
f 43//43 64//64 63//63
f 44//44 45//45 65//65
f 44//44 65//65 64//64
f 45//45 46//46 66//66
f 45//45 66//66 65//65
f 46//46 47//47 67//67
f 46//46 67//67 66//66
f 47//47 48//48 68//68
f 47//47 68//68 67//67
f 48//48 49//49 69//69
f 48//48 69//69 68//68
f 49//49 50//50 70//70
f 49//49 70//70 69//69
f 50//50 51//51 71//71
f 50//50 71//71 70//70
f 51//51 52//52 72//72
f 51//51 72//72 71//71
f 52//52 53//53 73//73
f 52//52 73//73 72//72
f 53//53 54//54 74//74
f 53//53 74//74 73//73
f 54//54 55//55 75//75
f 54//54 75//75 74//74
f 55//55 56//56 76//76
f 55//55 76//76 75//75
f 56//56 57//57 77//77
f 56//56 77//77 76//76
f 57//57 58//58 78//78
f 57//57 78//78 77//77
f 58//58 59//59 79//79
f 58//58 79//79 78//78
f 59//59 60//60 80//80
f 59//59 80//80 79//79
f 60//60 41//41 61//61
f 60//60 61//61 80//80
f 61//61 62//62 82//82
f 61//61 82//82 81//81
f 62//62 63//63 83//83
f 62//62 83//83 82//82
f 63//63 64//64 84//84
f 63//63 84//84 83//83
f 64//64 65//65 85//85
f 64//64 85//85 84//84
f 65//65 66//66 86//86
f 65//65 86//86 85//85
f 66//66 67//67 87//87
f 66//66 87//87 86//86
f 67//67 68//68 88//88
f 67//67 88//88 87//87
f 68//68 69//69 89//89
f 68//68 89//89 88//88
f 69//69 70//70 90//90
f 69//69 90//90 89//89
f 70//70 71//71 91//91
f 70//70 91//91 90//90
f 71//71 72//72 92//92
f 71//71 92//92 91//91
f 72//72 73//73 93//93
f 72//72 93//93 92//92
f 73//73 74//74 94//94
f 73//73 94//94 93//93
f 74//74 75//75 95//95
f 74//74 95//95 94//94
f 75//75 76//76 96//96
f 75//75 96//96 95//95
f 76//76 77//77 97//97
f 76//76 97//97 96//96
f 77//77 78//78 98//98
f 77//77 98//98 97//97
f 78//78 79//79 99//99
f 78//78 99//99 98//98
f 79//79 80//80 100//100
f 79//79 100//100 99//99
f 80//80 61//61 81//81
f 80//80 81//81 100//100
f 81//81 82//82 102//102
f 81//81 102//102 101//101
f 82//82 83//83 103//103
f 82//82 103//103 102//102
f 83//83 84//84 104//104
f 83//83 104//104 103//103
f 84//84 85//85 105//105
f 84//84 105//105 104//104
f 85//85 86//86 106//106
f 85//85 106//106 105//105
f 86//86 87//87 107//107
f 86//86 107//107 106//106
f 87//87 88//88 108//108
f 87//87 108//108 107//107
f 88//88 89//89 109//109
f 88//88 109//109 108//108
f 89//89 90//90 110//110
f 89//89 110//110 109//109
f 90//90 91//91 111//111
f 90//90 111//111 110//110
f 91//91 92//92 112//112
f 91//91 112//112 111//111
f 92//92 93//93 113//113
f 92//92 113//113 112//112
f 93//93 94//94 114//114
f 93//93 114//114 113//113
f 94//94 95//95 115//115
f 94//94 115//115 114//114
f 95//95 96//96 116//116
f 95//95 116//116 115//115
f 96//96 97//97 117//117
f 96//96 117//117 116//116
f 97//97 98//98 118//118
f 97//97 118//118 117//117
f 98//98 99//99 119//119
f 98//98 119//119 118//118
f 99//99 100//100 120//120
f 99//99 120//120 119//119
f 100//100 81//81 101//101
f 100//100 101//101 120//120
f 101//101 102//102 122//122
f 101//101 122//122 121//121
f 102//102 103//103 123//123
f 102//102 123//123 122//122
f 103//103 104//104 124//124
f 103//103 124//124 123//123
f 104//104 105//105 125//125
f 104//104 125//125 124//124
f 105//105 106//106 126//126
f 105//105 126//126 125//125
f 106//106 107//107 127//127
f 106//106 127//127 126//126
f 107//107 108//108 128//128
f 107//107 128//128 127//127
f 108//108 109//109 129//129
f 108//108 129//129 128//128
f 109//109 110//110 130//130
f 109//109 130//130 129//129
f 110//110 111//111 131//131
f 110//110 131//131 130//130
f 111//111 112//112 132//132
f 111//111 132//132 131//131
f 112//112 113//113 133//133
f 112//112 133//133 132//132
f 113//113 114//114 134//134
f 113//113 134//134 133//133
f 114//114 115//115 135//135
f 114//114 135//135 134//134
f 115//115 116//116 136//136
f 115//115 136//136 135//135
f 116//116 117//117 137//137
f 116//116 137//137 136//136
f 117//117 118//118 138//138
f 117//117 138//138 137//137
f 118//118 119//119 139//139
f 118//118 139//139 138//138
f 119//119 120//120 140//140
f 119//119 140//140 139//139
f 120//120 101//101 121//121
f 120//120 121//121 140//140
f 121//121 122//122 142//142
f 121//121 142//142 141//141
f 122//122 123//123 143//143
f 122//122 143//143 142//142
f 123//123 124//124 144//144
f 123//123 144//144 143//143
f 124//124 125//125 145//145
f 124//124 145//145 144//144
f 125//125 126//126 146//146
f 125//125 146//146 145//145
f 126//126 127//127 147//147
f 126//126 147//147 146//146
f 127//127 128//128 148//148
f 127//127 148//148 147//147
f 128//128 129//129 149//149
f 128//128 149//149 148//148
f 129//129 130//130 150//150
f 129//129 150//150 149//149
f 130//130 131//131 151//151
f 130//130 151//151 150//150
f 131//131 132//132 152//152
f 131//131 152//152 151//151
f 132//132 133//133 153//153
f 132//132 153//153 152//152
f 133//133 134//134 154//154
f 133//133 154//154 153//153
f 134//134 135//135 155//155
f 134//134 155//155 154//154
f 135//135 136//136 156//156
f 135//135 156//156 155//155
f 136//136 137//137 157//157
f 136//136 157//157 156//156
f 137//137 138//138 158//158
f 137//137 158//158 157//157
f 138//138 139//139 159//159
f 138//138 159//159 158//158
f 139//139 140//140 160//160
f 139//139 160//160 159//159
f 140//140 121//121 141//141
f 140//140 141//141 160//160
f 141//141 142//142 162//162
f 141//141 162//162 161//161
f 142//142 143//143 163//163
f 142//142 163//163 162//162
f 143//143 144//144 164//164
f 143//143 164//164 163//163
f 144//144 145//145 165//165
f 144//144 165//165 164//164
f 145//145 146//146 166//166
f 145//145 166//166 165//165
f 146//146 147//147 167//167
f 146//146 167//167 166//166
f 147//147 148//148 168//168
f 147//147 168//168 167//167
f 148//148 149//149 169//169
f 148//148 169//169 168//168
f 149//149 150//150 170//170
f 149//149 170//170 169//169
f 150//150 151//151 171//171
f 150//150 171//171 170//170
f 151//151 152//152 172//172
f 151//151 172//172 171//171
f 152//152 153//153 173//173
f 152//152 173//173 172//172
f 153//153 154//154 174//174
f 153//153 174//174 173//173
f 154//154 155//155 175//175
f 154//154 175//175 174//174
f 155//155 156//156 176//176
f 155//155 176//176 175//175
f 156//156 157//157 177//177
f 156//156 177//177 176//176
f 157//157 158//158 178//178
f 157//157 178//178 177//177
f 158//158 159//159 179//179
f 158//158 179//179 178//178
f 159//159 160//160 180//180
f 159//159 180//180 179//179
f 160//160 141//141 161//161
f 160//160 161//161 180//180
f 161//161 162//162 182//182
f 161//161 182//182 181//181
f 162//162 163//163 183//183
f 162//162 183//183 182//182
f 163//163 164//164 184//184
f 163//163 184//184 183//183
f 164//164 165//165 185//185
f 164//164 185//185 184//184
f 165//165 166//166 186//186
f 165//165 186//186 185//185
f 166//166 167//167 187//187
f 166//166 187//187 186//186
f 167//167 168//168 188//188
f 167//167 188//188 187//187
f 168//168 169//169 189//189
f 168//168 189//189 188//188
f 169//169 170//170 190//190
f 169//169 190//190 189//189
f 170//170 171//171 191//191
f 170//170 191//191 190//190
f 171//171 172//172 192//192
f 171//171 192//192 191//191
f 172//172 173//173 193//193
f 172//172 193//193 192//192
f 173//173 174//174 194//194
f 173//173 194//194 193//193
f 174//174 175//175 195//195
f 174//174 195//195 194//194
f 175//175 176//176 196//196
f 175//175 196//196 195//195
f 176//176 177//177 197//197
f 176//176 197//197 196//196
f 177//177 178//178 198//198
f 177//177 198//198 197//197
f 178//178 179//179 199//199
f 178//178 199//199 198//198
f 179//179 180//180 200//200
f 179//179 200//200 199//199
f 180//180 161//161 181//181
f 180//180 181//181 200//200
f 181//181 182//182 202//202
f 181//181 202//202 201//201
f 182//182 183//183 203//203
f 182//182 203//203 202//202
f 183//183 184//184 204//204
f 183//183 204//204 203//203
f 184//184 185//185 205//205
f 184//184 205//205 204//204
f 185//185 186//186 206//206
f 185//185 206//206 205//205
f 186//186 187//187 207//207
f 186//186 207//207 206//206
f 187//187 188//188 208//208
f 187//187 208//208 207//207
f 188//188 189//189 209//209
f 188//188 209//209 208//208
f 189//189 190//190 210//210
f 189//189 210//210 209//209
f 190//190 191//191 211//211
f 190//190 211//211 210//210
f 191//191 192//192 212//212
f 191//191 212//212 211//211
f 192//192 193//193 213//213
f 192//192 213//213 212//212
f 193//193 194//194 214//214
f 193//193 214//214 213//213
f 194//194 195//195 215//215
f 194//194 215//215 214//214
f 195//195 196//196 216//216
f 195//195 216//216 215//215
f 196//196 197//197 217//217
f 196//196 217//217 216//216
f 197//197 198//198 218//218
f 197//197 218//218 217//217
f 198//198 199//199 219//219
f 198//198 219//219 218//218
f 199//199 200//200 220//220
f 199//199 220//220 219//219
f 200//200 181//181 201//201
f 200//200 201//201 220//220
f 201//201 202//202 222//222
f 201//201 222//222 221//221
f 202//202 203//203 223//223
f 202//202 223//223 222//222
f 203//203 204//204 224//224
f 203//203 224//224 223//223
f 204//204 205//205 225//225
f 204//204 225//225 224//224
f 205//205 206//206 226//226
f 205//205 226//226 225//225
f 206//206 207//207 227//227
f 206//206 227//227 226//226
f 207//207 208//208 228//228
f 207//207 228//228 227//227
f 208//208 209//209 229//229
f 208//208 229//229 228//228
f 209//209 210//210 230//230
f 209//209 230//230 229//229
f 210//210 211//211 231//231
f 210//210 231//231 230//230
f 211//211 212//212 232//232
f 211//211 232//232 231//231
f 212//212 213//213 233//233
f 212//212 233//233 232//232
f 213//213 214//214 234//234
f 213//213 234//234 233//233
f 214//214 215//215 235//235
f 214//214 235//235 234//234
f 215//215 216//216 236//236
f 215//215 236//236 235//235
f 216//216 217//217 237//237
f 216//216 237//237 236//236
f 217//217 218//218 238//238
f 217//217 238//238 237//237
f 218//218 219//219 239//239
f 218//218 239//239 238//238
f 219//219 220//220 240//240
f 219//219 240//240 239//239
f 220//220 201//201 221//221
f 220//220 221//221 240//240
f 221//221 222//222 242//242
f 221//221 242//242 241//241
f 222//222 223//223 243//243
f 222//222 243//243 242//242
f 223//223 224//224 244//244
f 223//223 244//244 243//243
f 224//224 225//225 245//245
f 224//224 245//245 244//244
f 225//225 226//226 246//246
f 225//225 246//246 245//245
f 226//226 227//227 247//247
f 226//226 247//247 246//246
f 227//227 228//228 248//248
f 227//227 248//248 247//247
f 228//228 229//229 249//249
f 228//228 249//249 248//248
f 229//229 230//230 250//250
f 229//229 250//250 249//249
f 230//230 231//231 251//251
f 230//230 251//251 250//250
f 231//231 232//232 252//252
f 231//231 252//252 251//251
f 232//232 233//233 253//253
f 232//232 253//253 252//252
f 233//233 234//234 254//254
f 233//233 254//254 253//253
f 234//234 235//235 255//255
f 234//234 255//255 254//254
f 235//235 236//236 256//256
f 235//235 256//256 255//255
f 236//236 237//237 257//257
f 236//236 257//257 256//256
f 237//237 238//238 258//258
f 237//237 258//258 257//257
f 238//238 239//239 259//259
f 238//238 259//259 258//258
f 239//239 240//240 260//260
f 239//239 260//260 259//259
f 240//240 221//221 241//241
f 240//240 241//241 260//260
f 241//241 242//242 262//262
f 241//241 262//262 261//261
f 242//242 243//243 263//263
f 242//242 263//263 262//262
f 243//243 244//244 264//264
f 243//243 264//264 263//263
f 244//244 245//245 265//265
f 244//244 265//265 264//264
f 245//245 246//246 266//266
f 245//245 266//266 265//265
f 246//246 247//247 267//267
f 246//246 267//267 266//266
f 247//247 248//248 268//268
f 247//247 268//268 267//267
f 248//248 249//249 269//269
f 248//248 269//269 268//268
f 249//249 250//250 270//270
f 249//249 270//270 269//269
f 250//250 251//251 271//271
f 250//250 271//271 270//270
f 251//251 252//252 272//272
f 251//251 272//272 271//271
f 252//252 253//253 273//273
f 252//252 273//273 272//272
f 253//253 254//254 274//274
f 253//253 274//274 273//273
f 254//254 255//255 275//275
f 254//254 275//275 274//274
f 255//255 256//256 276//276
f 255//255 276//276 275//275
f 256//256 257//257 277//277
f 256//256 277//277 276//276
f 257//257 258//258 278//278
f 257//257 278//278 277//277
f 258//258 259//259 279//279
f 258//258 279//279 278//278
f 259//259 260//260 280//280
f 259//259 280//280 279//279
f 260//260 241//241 261//261
f 260//260 261//261 280//280
f 261//261 262//262 282//282
f 261//261 282//282 281//281
f 262//262 263//263 283//283
f 262//262 283//283 282//282
f 263//263 264//264 284//284
f 263//263 284//284 283//283
f 264//264 265//265 285//285
f 264//264 285//285 284//284
f 265//265 266//266 286//286
f 265//265 286//286 285//285
f 266//266 267//267 287//287
f 266//266 287//287 286//286
f 267//267 268//268 288//288
f 267//267 288//288 287//287
f 268//268 269//269 289//289
f 268//268 289//289 288//288
f 269//269 270//270 290//290
f 269//269 290//290 289//289
f 270//270 271//271 291//291
f 270//270 291//291 290//290
f 271//271 272//272 292//292
f 271//271 292//292 291//291
f 272//272 273//273 293//293
f 272//272 293//293 292//292
f 273//273 274//274 294//294
f 273//273 294//294 293//293
f 274//274 275//275 295//295
f 274//274 295//295 294//294
f 275//275 276//276 296//296
f 275//275 296//296 295//295
f 276//276 277//277 297//297
f 276//276 297//297 296//296
f 277//277 278//278 298//298
f 277//277 298//298 297//297
f 278//278 279//279 299//299
f 278//278 299//299 298//298
f 279//279 280//280 300//300
f 279//279 300//300 299//299
f 280//280 261//261 281//281
f 280//280 281//281 300//300
f 281//281 282//282 302//302
f 281//281 302//302 301//301
f 282//282 283//283 303//303
f 282//282 303//303 302//302
f 283//283 284//284 304//304
f 283//283 304//304 303//303
f 284//284 285//285 305//305
f 284//284 305//305 304//304
f 285//285 286//286 306//306
f 285//285 306//306 305//305
f 286//286 287//287 307//307
f 286//286 307//307 306//306
f 287//287 288//288 308//308
f 287//287 308//308 307//307
f 288//288 289//289 309//309
f 288//288 309//309 308//308
f 289//289 290//290 310//310
f 289//289 310//310 309//309
f 290//290 291//291 311//311
f 290//290 311//311 310//310
f 291//291 292//292 312//312
f 291//291 312//312 311//311
f 292//292 293//293 313//313
f 292//292 313//313 312//312
f 293//293 294//294 314//314
f 293//293 314//314 313//313
f 294//294 295//295 315//315
f 294//294 315//315 314//314
f 295//295 296//296 316//316
f 295//295 316//316 315//315
f 296//296 297//297 317//317
f 296//296 317//317 316//316
f 297//297 298//298 318//318
f 297//297 318//318 317//317
f 298//298 299//299 319//319
f 298//298 319//319 318//318
f 299//299 300//300 320//320
f 299//299 320//320 319//319
f 300//300 281//281 301//301
f 300//300 301//301 320//320
f 301//301 302//302 322//322
f 301//301 322//322 321//321
f 302//302 303//303 323//323
f 302//302 323//323 322//322
f 303//303 304//304 324//324
f 303//303 324//324 323//323
f 304//304 305//305 325//325
f 304//304 325//325 324//324
f 305//305 306//306 326//326
f 305//305 326//326 325//325
f 306//306 307//307 327//327
f 306//306 327//327 326//326
f 307//307 308//308 328//328
f 307//307 328//328 327//327
f 308//308 309//309 329//329
f 308//308 329//329 328//328
f 309//309 310//310 330//330
f 309//309 330//330 329//329
f 310//310 311//311 331//331
f 310//310 331//331 330//330
f 311//311 312//312 332//332
f 311//311 332//332 331//331
f 312//312 313//313 333//333
f 312//312 333//333 332//332
f 313//313 314//314 334//334
f 313//313 334//334 333//333
f 314//314 315//315 335//335
f 314//314 335//335 334//334
f 315//315 316//316 336//336
f 315//315 336//336 335//335
f 316//316 317//317 337//337
f 316//316 337//337 336//336
f 317//317 318//318 338//338
f 317//317 338//338 337//337
f 318//318 319//319 339//339
f 318//318 339//339 338//338
f 319//319 320//320 340//340
f 319//319 340//340 339//339
f 320//320 301//301 321//321
f 320//320 321//321 340//340
f 321//321 322//322 342//342
f 321//321 342//342 341//341
f 322//322 323//323 343//343
f 322//322 343//343 342//342
f 323//323 324//324 344//344
f 323//323 344//344 343//343
f 324//324 325//325 345//345
f 324//324 345//345 344//344
f 325//325 326//326 346//346
f 325//325 346//346 345//345
f 326//326 327//327 347//347
f 326//326 347//347 346//346
f 327//327 328//328 348//348
f 327//327 348//348 347//347
f 328//328 329//329 349//349
f 328//328 349//349 348//348
f 329//329 330//330 350//350
f 329//329 350//350 349//349
f 330//330 331//331 351//351
f 330//330 351//351 350//350
f 331//331 332//332 352//352
f 331//331 352//352 351//351
f 332//332 333//333 353//353
f 332//332 353//353 352//352
f 333//333 334//334 354//354
f 333//333 354//354 353//353
f 334//334 335//335 355//355
f 334//334 355//355 354//354
f 335//335 336//336 356//356
f 335//335 356//356 355//355
f 336//336 337//337 357//357
f 336//336 357//357 356//356
f 337//337 338//338 358//358
f 337//337 358//358 357//357
f 338//338 339//339 359//359
f 338//338 359//359 358//358
f 339//339 340//340 360//360
f 339//339 360//360 359//359
f 340//340 321//321 341//341
f 340//340 341//341 360//360
f 341//341 342//342 362//362
f 341//341 362//362 361//361
f 342//342 343//343 363//363
f 342//342 363//363 362//362
f 343//343 344//344 364//364
f 343//343 364//364 363//363
f 344//344 345//345 365//365
f 344//344 365//365 364//364
f 345//345 346//346 366//366
f 345//345 366//366 365//365
f 346//346 347//347 367//367
f 346//346 367//367 366//366
f 347//347 348//348 368//368
f 347//347 368//368 367//367
f 348//348 349//349 369//369
f 348//348 369//369 368//368
f 349//349 350//350 370//370
f 349//349 370//370 369//369
f 350//350 351//351 371//371
f 350//350 371//371 370//370
f 351//351 352//352 372//372
f 351//351 372//372 371//371
f 352//352 353//353 373//373
f 352//352 373//373 372//372
f 353//353 354//354 374//374
f 353//353 374//374 373//373
f 354//354 355//355 375//375
f 354//354 375//375 374//374
f 355//355 356//356 376//376
f 355//355 376//376 375//375
f 356//356 357//357 377//377
f 356//356 377//377 376//376
f 357//357 358//358 378//378
f 357//357 378//378 377//377
f 358//358 359//359 379//379
f 358//358 379//379 378//378
f 359//359 360//360 380//380
f 359//359 380//380 379//379
f 360//360 341//341 361//361
f 360//360 361//361 380//380
f 361//361 362//362 382//382
f 361//361 382//382 381//381
f 362//362 363//363 383//383
f 362//362 383//383 382//382
f 363//363 364//364 384//384
f 363//363 384//384 383//383
f 364//364 365//365 385//385
f 364//364 385//385 384//384
f 365//365 366//366 386//386
f 365//365 386//386 385//385
f 366//366 367//367 387//387
f 366//366 387//387 386//386
f 367//367 368//368 388//388
f 367//367 388//388 387//387
f 368//368 369//369 389//389
f 368//368 389//389 388//388
f 369//369 370//370 390//390
f 369//369 390//390 389//389
f 370//370 371//371 391//391
f 370//370 391//391 390//390
f 371//371 372//372 392//392
f 371//371 392//392 391//391
f 372//372 373//373 393//393
f 372//372 393//393 392//392
f 373//373 374//374 394//394
f 373//373 394//394 393//393
f 374//374 375//375 395//395
f 374//374 395//395 394//394
f 375//375 376//376 396//396
f 375//375 396//396 395//395
f 376//376 377//377 397//397
f 376//376 397//397 396//396
f 377//377 378//378 398//398
f 377//377 398//398 397//397
f 378//378 379//379 399//399
f 378//378 399//399 398//398
f 379//379 380//380 400//400
f 379//379 400//400 399//399
f 380//380 361//361 381//381
f 380//380 381//381 400//400
f 381//381 382//382 402//402
f 381//381 402//402 401//401
f 382//382 383//383 403//403
f 382//382 403//403 402//402
f 383//383 384//384 404//404
f 383//383 404//404 403//403
f 384//384 385//385 405//405
f 384//384 405//405 404//404
f 385//385 386//386 406//406
f 385//385 406//406 405//405
f 386//386 387//387 407//407
f 386//386 407//407 406//406
f 387//387 388//388 408//408
f 387//387 408//408 407//407
f 388//388 389//389 409//409
f 388//388 409//409 408//408
f 389//389 390//390 410//410
f 389//389 410//410 409//409
f 390//390 391//391 411//411
f 390//390 411//411 410//410
f 391//391 392//392 412//412
f 391//391 412//412 411//411
f 392//392 393//393 413//413
f 392//392 413//413 412//412
f 393//393 394//394 414//414
f 393//393 414//414 413//413
f 394//394 395//395 415//415
f 394//394 415//415 414//414
f 395//395 396//396 416//416
f 395//395 416//416 415//415
f 396//396 397//397 417//417
f 396//396 417//417 416//416
f 397//397 398//398 418//418
f 397//397 418//418 417//417
f 398//398 399//399 419//419
f 398//398 419//419 418//418
f 399//399 400//400 420//420
f 399//399 420//420 419//419
f 400//400 381//381 401//401
f 400//400 401//401 420//420
f 401//401 402//402 422//422
f 401//401 422//422 421//421
f 402//402 403//403 423//423
f 402//402 423//423 422//422
f 403//403 404//404 424//424
f 403//403 424//424 423//423
f 404//404 405//405 425//425
f 404//404 425//425 424//424
f 405//405 406//406 426//426
f 405//405 426//426 425//425
f 406//406 407//407 427//427
f 406//406 427//427 426//426
f 407//407 408//408 428//428
f 407//407 428//428 427//427
f 408//408 409//409 429//429
f 408//408 429//429 428//428
f 409//409 410//410 430//430
f 409//409 430//430 429//429
f 410//410 411//411 431//431
f 410//410 431//431 430//430
f 411//411 412//412 432//432
f 411//411 432//432 431//431
f 412//412 413//413 433//433
f 412//412 433//433 432//432
f 413//413 414//414 434//434
f 413//413 434//434 433//433
f 414//414 415//415 435//435
f 414//414 435//435 434//434
f 415//415 416//416 436//436
f 415//415 436//436 435//435
f 416//416 417//417 437//437
f 416//416 437//437 436//436
f 417//417 418//418 438//438
f 417//417 438//438 437//437
f 418//418 419//419 439//439
f 418//418 439//439 438//438
f 419//419 420//420 440//440
f 419//419 440//440 439//439
f 420//420 401//401 421//421
f 420//420 421//421 440//440
f 421//421 422//422 442//442
f 421//421 442//442 441//441
f 422//422 423//423 443//443
f 422//422 443//443 442//442
f 423//423 424//424 444//444
f 423//423 444//444 443//443
f 424//424 425//425 445//445
f 424//424 445//445 444//444
f 425//425 426//426 446//446
f 425//425 446//446 445//445
f 426//426 427//427 447//447
f 426//426 447//447 446//446
f 427//427 428//428 448//448
f 427//427 448//448 447//447
f 428//428 429//429 449//449
f 428//428 449//449 448//448
f 429//429 430//430 450//450
f 429//429 450//450 449//449
f 430//430 431//431 451//451
f 430//430 451//451 450//450
f 431//431 432//432 452//452
f 431//431 452//452 451//451
f 432//432 433//433 453//453
f 432//432 453//453 452//452
f 433//433 434//434 454//454
f 433//433 454//454 453//453
f 434//434 435//435 455//455
f 434//434 455//455 454//454
f 435//435 436//436 456//456
f 435//435 456//456 455//455
f 436//436 437//437 457//457
f 436//436 457//457 456//456
f 437//437 438//438 458//458
f 437//437 458//458 457//457
f 438//438 439//439 459//459
f 438//438 459//459 458//458
f 439//439 440//440 460//460
f 439//439 460//460 459//459
f 440//440 421//421 441//441
f 440//440 441//441 460//460
f 441//441 442//442 462//462
f 441//441 462//462 461//461
f 442//442 443//443 463//463
f 442//442 463//463 462//462
f 443//443 444//444 464//464
f 443//443 464//464 463//463
f 444//444 445//445 465//465
f 444//444 465//465 464//464
f 445//445 446//446 466//466
f 445//445 466//466 465//465
f 446//446 447//447 467//467
f 446//446 467//467 466//466
f 447//447 448//448 468//468
f 447//447 468//468 467//467
f 448//448 449//449 469//469
f 448//448 469//469 468//468
f 449//449 450//450 470//470
f 449//449 470//470 469//469
f 450//450 451//451 471//471
f 450//450 471//471 470//470
f 451//451 452//452 472//472
f 451//451 472//472 471//471
f 452//452 453//453 473//473
f 452//452 473//473 472//472
f 453//453 454//454 474//474
f 453//453 474//474 473//473
f 454//454 455//455 475//475
f 454//454 475//475 474//474
f 455//455 456//456 476//476
f 455//455 476//476 475//475
f 456//456 457//457 477//477
f 456//456 477//477 476//476
f 457//457 458//458 478//478
f 457//457 478//478 477//477
f 458//458 459//459 479//479
f 458//458 479//479 478//478
f 459//459 460//460 480//480
f 459//459 480//480 479//479
f 460//460 441//441 461//461
f 460//460 461//461 480//480
f 461//461 462//462 482//482
f 461//461 482//482 481//481
f 462//462 463//463 483//483
f 462//462 483//483 482//482
f 463//463 464//464 484//484
f 463//463 484//484 483//483
f 464//464 465//465 485//485
f 464//464 485//485 484//484
f 465//465 466//466 486//486
f 465//465 486//486 485//485
f 466//466 467//467 487//487
f 466//466 487//487 486//486
f 467//467 468//468 488//488
f 467//467 488//488 487//487
f 468//468 469//469 489//489
f 468//468 489//489 488//488
f 469//469 470//470 490//490
f 469//469 490//490 489//489
f 470//470 471//471 491//491
f 470//470 491//491 490//490
f 471//471 472//472 492//492
f 471//471 492//492 491//491
f 472//472 473//473 493//493
f 472//472 493//493 492//492
f 473//473 474//474 494//494
f 473//473 494//494 493//493
f 474//474 475//475 495//495
f 474//474 495//495 494//494
f 475//475 476//476 496//496
f 475//475 496//496 495//495
f 476//476 477//477 497//497
f 476//476 497//497 496//496
f 477//477 478//478 498//498
f 477//477 498//498 497//497
f 478//478 479//479 499//499
f 478//478 499//499 498//498
f 479//479 480//480 500//500
f 479//479 500//500 499//499
f 480//480 461//461 481//481
f 480//480 481//481 500//500
f 481//481 482//482 502//502
f 481//481 502//502 501//501
f 482//482 483//483 503//503
f 482//482 503//503 502//502
f 483//483 484//484 504//504
f 483//483 504//504 503//503
f 484//484 485//485 505//505
f 484//484 505//505 504//504
f 485//485 486//486 506//506
f 485//485 506//506 505//505
f 486//486 487//487 507//507
f 486//486 507//507 506//506
f 487//487 488//488 508//508
f 487//487 508//508 507//507
f 488//488 489//489 509//509
f 488//488 509//509 508//508
f 489//489 490//490 510//510
f 489//489 510//510 509//509
f 490//490 491//491 511//511
f 490//490 511//511 510//510
f 491//491 492//492 512//512
f 491//491 512//512 511//511
f 492//492 493//493 513//513
f 492//492 513//513 512//512
f 493//493 494//494 514//514
f 493//493 514//514 513//513
f 494//494 495//495 515//515
f 494//494 515//515 514//514
f 495//495 496//496 516//516
f 495//495 516//516 515//515
f 496//496 497//497 517//517
f 496//496 517//517 516//516
f 497//497 498//498 518//518
f 497//497 518//518 517//517
f 498//498 499//499 519//519
f 498//498 519//519 518//518
f 499//499 500//500 520//520
f 499//499 520//520 519//519
f 500//500 481//481 501//501
f 500//500 501//501 520//520
f 501//501 502//502 522//522
f 501//501 522//522 521//521
f 502//502 503//503 523//523
f 502//502 523//523 522//522
f 503//503 504//504 524//524
f 503//503 524//524 523//523
f 504//504 505//505 525//525
f 504//504 525//525 524//524
f 505//505 506//506 526//526
f 505//505 526//526 525//525
f 506//506 507//507 527//527
f 506//506 527//527 526//526
f 507//507 508//508 528//528
f 507//507 528//528 527//527
f 508//508 509//509 529//529
f 508//508 529//529 528//528
f 509//509 510//510 530//530
f 509//509 530//530 529//529
f 510//510 511//511 531//531
f 510//510 531//531 530//530
f 511//511 512//512 532//532
f 511//511 532//532 531//531
f 512//512 513//513 533//533
f 512//512 533//533 532//532
f 513//513 514//514 534//534
f 513//513 534//534 533//533
f 514//514 515//515 535//535
f 514//514 535//535 534//534
f 515//515 516//516 536//536
f 515//515 536//536 535//535
f 516//516 517//517 537//537
f 516//516 537//537 536//536
f 517//517 518//518 538//538
f 517//517 538//538 537//537
f 518//518 519//519 539//539
f 518//518 539//539 538//538
f 519//519 520//520 540//540
f 519//519 540//540 539//539
f 520//520 501//501 521//521
f 520//520 521//521 540//540
f 521//521 522//522 542//542
f 521//521 542//542 541//541
f 522//522 523//523 543//543
f 522//522 543//543 542//542
f 523//523 524//524 544//544
f 523//523 544//544 543//543
f 524//524 525//525 545//545
f 524//524 545//545 544//544
f 525//525 526//526 546//546
f 525//525 546//546 545//545
f 526//526 527//527 547//547
f 526//526 547//547 546//546
f 527//527 528//528 548//548
f 527//527 548//548 547//547
f 528//528 529//529 549//549
f 528//528 549//549 548//548
f 529//529 530//530 550//550
f 529//529 550//550 549//549
f 530//530 531//531 551//551
f 530//530 551//551 550//550
f 531//531 532//532 552//552
f 531//531 552//552 551//551
f 532//532 533//533 553//553
f 532//532 553//553 552//552
f 533//533 534//534 554//554
f 533//533 554//554 553//553
f 534//534 535//535 555//555
f 534//534 555//555 554//554
f 535//535 536//536 556//556
f 535//535 556//556 555//555
f 536//536 537//537 557//557
f 536//536 557//557 556//556
f 537//537 538//538 558//558
f 537//537 558//558 557//557
f 538//538 539//539 559//559
f 538//538 559//559 558//558
f 539//539 540//540 560//560
f 539//539 560//560 559//559
f 540//540 521//521 541//541
f 540//540 541//541 560//560
f 541//541 542//542 562//562
f 541//541 562//562 561//561
f 542//542 543//543 563//563
f 542//542 563//563 562//562
f 543//543 544//544 564//564
f 543//543 564//564 563//563
f 544//544 545//545 565//565
f 544//544 565//565 564//564
f 545//545 546//546 566//566
f 545//545 566//566 565//565
f 546//546 547//547 567//567
f 546//546 567//567 566//566
f 547//547 548//548 568//568
f 547//547 568//568 567//567
f 548//548 549//549 569//569
f 548//548 569//569 568//568
f 549//549 550//550 570//570
f 549//549 570//570 569//569
f 550//550 551//551 571//571
f 550//550 571//571 570//570
f 551//551 552//552 572//572
f 551//551 572//572 571//571
f 552//552 553//553 573//573
f 552//552 573//573 572//572
f 553//553 554//554 574//574
f 553//553 574//574 573//573
f 554//554 555//555 575//575
f 554//554 575//575 574//574
f 555//555 556//556 576//576
f 555//555 576//576 575//575
f 556//556 557//557 577//577
f 556//556 577//577 576//576
f 557//557 558//558 578//578
f 557//557 578//578 577//577
f 558//558 559//559 579//579
f 558//558 579//579 578//578
f 559//559 560//560 580//580
f 559//559 580//580 579//579
f 560//560 541//541 561//561
f 560//560 561//561 580//580
f 561//561 562//562 582//582
f 561//561 582//582 581//581
f 562//562 563//563 583//583
f 562//562 583//583 582//582
f 563//563 564//564 584//584
f 563//563 584//584 583//583
f 564//564 565//565 585//585
f 564//564 585//585 584//584
f 565//565 566//566 586//586
f 565//565 586//586 585//585
f 566//566 567//567 587//587
f 566//566 587//587 586//586
f 567//567 568//568 588//588
f 567//567 588//588 587//587
f 568//568 569//569 589//589
f 568//568 589//589 588//588
f 569//569 570//570 590//590
f 569//569 590//590 589//589
f 570//570 571//571 591//591
f 570//570 591//591 590//590
f 571//571 572//572 592//592
f 571//571 592//592 591//591
f 572//572 573//573 593//593
f 572//572 593//593 592//592
f 573//573 574//574 594//594
f 573//573 594//594 593//593
f 574//574 575//575 595//595
f 574//574 595//595 594//594
f 575//575 576//576 596//596
f 575//575 596//596 595//595
f 576//576 577//577 597//597
f 576//576 597//597 596//596
f 577//577 578//578 598//598
f 577//577 598//598 597//597
f 578//578 579//579 599//599
f 578//578 599//599 598//598
f 579//579 580//580 600//600
f 579//579 600//600 599//599
f 580//580 561//561 581//581
f 580//580 581//581 600//600
f 581//581 582//582 602//602
f 581//581 602//602 601//601
f 582//582 583//583 603//603
f 582//582 603//603 602//602
f 583//583 584//584 604//604
f 583//583 604//604 603//603
f 584//584 585//585 605//605
f 584//584 605//605 604//604
f 585//585 586//586 606//606
f 585//585 606//606 605//605
f 586//586 587//587 607//607
f 586//586 607//607 606//606
f 587//587 588//588 608//608
f 587//587 608//608 607//607
f 588//588 589//589 609//609
f 588//588 609//609 608//608
f 589//589 590//590 610//610
f 589//589 610//610 609//609
f 590//590 591//591 611//611
f 590//590 611//611 610//610
f 591//591 592//592 612//612
f 591//591 612//612 611//611
f 592//592 593//593 613//613
f 592//592 613//613 612//612
f 593//593 594//594 614//614
f 593//593 614//614 613//613
f 594//594 595//595 615//615
f 594//594 615//615 614//614
f 595//595 596//596 616//616
f 595//595 616//616 615//615
f 596//596 597//597 617//617
f 596//596 617//617 616//616
f 597//597 598//598 618//618
f 597//597 618//618 617//617
f 598//598 599//599 619//619
f 598//598 619//619 618//618
f 599//599 600//600 620//620
f 599//599 620//620 619//619
f 600//600 581//581 601//601
f 600//600 601//601 620//620
f 601//601 602//602 622//622
f 601//601 622//622 621//621
f 602//602 603//603 623//623
f 602//602 623//623 622//622
f 603//603 604//604 624//624
f 603//603 624//624 623//623
f 604//604 605//605 625//625
f 604//604 625//625 624//624
f 605//605 606//606 626//626
f 605//605 626//626 625//625
f 606//606 607//607 627//627
f 606//606 627//627 626//626
f 607//607 608//608 628//628
f 607//607 628//628 627//627
f 608//608 609//609 629//629
f 608//608 629//629 628//628
f 609//609 610//610 630//630
f 609//609 630//630 629//629
f 610//610 611//611 631//631
f 610//610 631//631 630//630
f 611//611 612//612 632//632
f 611//611 632//632 631//631
f 612//612 613//613 633//633
f 612//612 633//633 632//632
f 613//613 614//614 634//634
f 613//613 634//634 633//633
f 614//614 615//615 635//635
f 614//614 635//635 634//634
f 615//615 616//616 636//636
f 615//615 636//636 635//635
f 616//616 617//617 637//637
f 616//616 637//637 636//636
f 617//617 618//618 638//638
f 617//617 638//638 637//637
f 618//618 619//619 639//639
f 618//618 639//639 638//638
f 619//619 620//620 640//640
f 619//619 640//640 639//639
f 620//620 601//601 621//621
f 620//620 621//621 640//640
f 641//641 2//2 1//1
f 641//641 3//3 2//2
f 641//641 4//4 3//3
f 641//641 5//5 4//4
f 641//641 6//6 5//5
f 641//641 7//7 6//6
f 641//641 8//8 7//7
f 641//641 9//9 8//8
f 641//641 10//10 9//9
f 641//641 11//11 10//10
f 641//641 12//12 11//11
f 641//641 13//13 12//12
f 641//641 14//14 13//13
f 641//641 15//15 14//14
f 641//641 16//16 15//15
f 641//641 17//17 16//16
f 641//641 18//18 17//17
f 641//641 19//19 18//18
f 641//641 20//20 19//19
f 641//641 1//1 20//20
f 642//642 621//621 622//622
f 642//642 622//622 623//623
f 642//642 623//623 624//624
f 642//642 624//624 625//625
f 642//642 625//625 626//626
f 642//642 626//626 627//627
f 642//642 627//627 628//628
f 642//642 628//628 629//629
f 642//642 629//629 630//630
f 642//642 630//630 631//631
f 642//642 631//631 632//632
f 642//642 632//632 633//633
f 642//642 633//633 634//634
f 642//642 634//634 635//635
f 642//642 635//635 636//636
f 642//642 636//636 637//637
f 642//642 637//637 638//638
f 642//642 638//638 639//639
f 642//642 639//639 640//640
f 642//642 640//640 621//621
