v 0.000000 0.000000 0.004000
v 0.030000 0.000000 0.004000
v 0.029743 0.003916 0.004000
v 0.028978 0.007765 0.004000
v 0.027716 0.011481 0.004000
v 0.025981 0.015000 0.004000
v 0.023801 0.018263 0.004000
v 0.021213 0.021213 0.004000
v 0.018263 0.023801 0.004000
v 0.015000 0.025981 0.004000
v 0.011481 0.027716 0.004000
v 0.007765 0.028978 0.004000
v 0.003916 0.029743 0.004000
v 0.000000 0.030000 0.004000
v -0.003916 0.029743 0.004000
v -0.007765 0.028978 0.004000
v -0.011481 0.027716 0.004000
v -0.015000 0.025981 0.004000
v -0.018263 0.023801 0.004000
v -0.021213 0.021213 0.004000
v -0.023801 0.018263 0.004000
v -0.025981 0.015000 0.004000
v -0.027716 0.011481 0.004000
v -0.028978 0.007765 0.004000
v -0.029743 0.003916 0.004000
v -0.030000 0.000000 0.004000
v -0.029743 -0.003916 0.004000
v -0.028978 -0.007765 0.004000
v -0.027716 -0.011481 0.004000
v -0.025981 -0.015000 0.004000
v -0.023801 -0.018263 0.004000
v -0.021213 -0.021213 0.004000
v -0.018263 -0.023801 0.004000
v -0.015000 -0.025981 0.004000
v -0.011481 -0.027716 0.004000
v -0.007765 -0.028978 0.004000
v -0.003916 -0.029743 0.004000
v -0.000000 -0.030000 0.004000
v 0.003916 -0.029743 0.004000
v 0.007765 -0.028978 0.004000
v 0.011481 -0.027716 0.004000
v 0.015000 -0.025981 0.004000
v 0.018263 -0.023801 0.004000
v 0.021213 -0.021213 0.004000
v 0.023801 -0.018263 0.004000
v 0.025981 -0.015000 0.004000
v 0.027716 -0.011481 0.004000
v 0.028978 -0.007765 0.004000
v 0.029743 -0.003916 0.004000
v 0.040000 0.000000 0.008000
v 0.039658 0.005221 0.008000
v 0.038637 0.010353 0.008000
v 0.036955 0.015307 0.008000
v 0.034641 0.020000 0.008000
v 0.031734 0.024350 0.008000
v 0.028284 0.028284 0.008000
v 0.024350 0.031734 0.008000
v 0.020000 0.034641 0.008000
v 0.015307 0.036955 0.008000
v 0.010353 0.038637 0.008000
v 0.005221 0.039658 0.008000
v 0.000000 0.040000 0.008000
v -0.005221 0.039658 0.008000
v -0.010353 0.038637 0.008000
v -0.015307 0.036955 0.008000
v -0.020000 0.034641 0.008000
v -0.024350 0.031734 0.008000
v -0.028284 0.028284 0.008000
v -0.031734 0.024350 0.008000
v -0.034641 0.020000 0.008000
v -0.036955 0.015307 0.008000
v -0.038637 0.010353 0.008000
v -0.039658 0.005221 0.008000
v -0.040000 0.000000 0.008000
v -0.039658 -0.005221 0.008000
v -0.038637 -0.010353 0.008000
v -0.036955 -0.015307 0.008000
v -0.034641 -0.020000 0.008000
v -0.031734 -0.024350 0.008000
v -0.028284 -0.028284 0.008000
v -0.024350 -0.031734 0.008000
v -0.020000 -0.034641 0.008000
v -0.015307 -0.036955 0.008000
v -0.010353 -0.038637 0.008000
v -0.005221 -0.039658 0.008000
v -0.000000 -0.040000 0.008000
v 0.005221 -0.039658 0.008000
v 0.010353 -0.038637 0.008000
v 0.015307 -0.036955 0.008000
v 0.020000 -0.034641 0.008000
v 0.024350 -0.031734 0.008000
v 0.028284 -0.028284 0.008000
v 0.031734 -0.024350 0.008000
v 0.034641 -0.020000 0.008000
v 0.036955 -0.015307 0.008000
v 0.038637 -0.010353 0.008000
v 0.039658 -0.005221 0.008000
v 0.047000 0.000000 0.012000
v 0.046598 0.006135 0.012000
v 0.045399 0.012164 0.012000
v 0.043422 0.017986 0.012000
v 0.040703 0.023500 0.012000
v 0.037288 0.028612 0.012000
v 0.033234 0.033234 0.012000
v 0.028612 0.037288 0.012000
v 0.023500 0.040703 0.012000
v 0.017986 0.043422 0.012000
v 0.012164 0.045399 0.012000
v 0.006135 0.046598 0.012000
v 0.000000 0.047000 0.012000
v -0.006135 0.046598 0.012000
v -0.012164 0.045399 0.012000
v -0.017986 0.043422 0.012000
v -0.023500 0.040703 0.012000
v -0.028612 0.037288 0.012000
v -0.033234 0.033234 0.012000
v -0.037288 0.028612 0.012000
v -0.040703 0.023500 0.012000
v -0.043422 0.017986 0.012000
v -0.045399 0.012164 0.012000
v -0.046598 0.006135 0.012000
v -0.047000 0.000000 0.012000
v -0.046598 -0.006135 0.012000
v -0.045399 -0.012164 0.012000
v -0.043422 -0.017986 0.012000
v -0.040703 -0.023500 0.012000
v -0.037288 -0.028612 0.012000
v -0.033234 -0.033234 0.012000
v -0.028612 -0.037288 0.012000
v -0.023500 -0.040703 0.012000
v -0.017986 -0.043422 0.012000
v -0.012164 -0.045399 0.012000
v -0.006135 -0.046598 0.012000
v -0.000000 -0.047000 0.012000
v 0.006135 -0.046598 0.012000
v 0.012164 -0.045399 0.012000
v 0.017986 -0.043422 0.012000
v 0.023500 -0.040703 0.012000
v 0.028612 -0.037288 0.012000
v 0.033234 -0.033234 0.012000
v 0.037288 -0.028612 0.012000
v 0.040703 -0.023500 0.012000
v 0.043422 -0.017986 0.012000
v 0.045399 -0.012164 0.012000
v 0.046598 -0.006135 0.012000
v 0.050000 0.000000 0.009000
v 0.049572 0.006526 0.009000
v 0.048296 0.012941 0.009000
v 0.046194 0.019134 0.009000
v 0.043301 0.025000 0.009000
v 0.039668 0.030438 0.009000
v 0.035355 0.035355 0.009000
v 0.030438 0.039668 0.009000
v 0.025000 0.043301 0.009000
v 0.019134 0.046194 0.009000
v 0.012941 0.048296 0.009000
v 0.006526 0.049572 0.009000
v 0.000000 0.050000 0.009000
v -0.006526 0.049572 0.009000
v -0.012941 0.048296 0.009000
v -0.019134 0.046194 0.009000
v -0.025000 0.043301 0.009000
v -0.030438 0.039668 0.009000
v -0.035355 0.035355 0.009000
v -0.039668 0.030438 0.009000
v -0.043301 0.025000 0.009000
v -0.046194 0.019134 0.009000
v -0.048296 0.012941 0.009000
v -0.049572 0.006526 0.009000
v -0.050000 0.000000 0.009000
v -0.049572 -0.006526 0.009000
v -0.048296 -0.012941 0.009000
v -0.046194 -0.019134 0.009000
v -0.043301 -0.025000 0.009000
v -0.039668 -0.030438 0.009000
v -0.035355 -0.035355 0.009000
v -0.030438 -0.039668 0.009000
v -0.025000 -0.043301 0.009000
v -0.019134 -0.046194 0.009000
v -0.012941 -0.048296 0.009000
v -0.006526 -0.049572 0.009000
v -0.000000 -0.050000 0.009000
v 0.006526 -0.049572 0.009000
v 0.012941 -0.048296 0.009000
v 0.019134 -0.046194 0.009000
v 0.025000 -0.043301 0.009000
v 0.030438 -0.039668 0.009000
v 0.035355 -0.035355 0.009000
v 0.039668 -0.030438 0.009000
v 0.043301 -0.025000 0.009000
v 0.046194 -0.019134 0.009000
v 0.048296 -0.012941 0.009000
v 0.049572 -0.006526 0.009000
v 0.050000 0.000000 0.003000
v 0.049572 0.006526 0.003000
v 0.048296 0.012941 0.003000
v 0.046194 0.019134 0.003000
v 0.043301 0.025000 0.003000
v 0.039668 0.030438 0.003000
v 0.035355 0.035355 0.003000
v 0.030438 0.039668 0.003000
v 0.025000 0.043301 0.003000
v 0.019134 0.046194 0.003000
v 0.012941 0.048296 0.003000
v 0.006526 0.049572 0.003000
v 0.000000 0.050000 0.003000
v -0.006526 0.049572 0.003000
v -0.012941 0.048296 0.003000
v -0.019134 0.046194 0.003000
v -0.025000 0.043301 0.003000
v -0.030438 0.039668 0.003000
v -0.035355 0.035355 0.003000
v -0.039668 0.030438 0.003000
v -0.043301 0.025000 0.003000
v -0.046194 0.019134 0.003000
v -0.048296 0.012941 0.003000
v -0.049572 0.006526 0.003000
v -0.050000 0.000000 0.003000
v -0.049572 -0.006526 0.003000
v -0.048296 -0.012941 0.003000
v -0.046194 -0.019134 0.003000
v -0.043301 -0.025000 0.003000
v -0.039668 -0.030438 0.003000
v -0.035355 -0.035355 0.003000
v -0.030438 -0.039668 0.003000
v -0.025000 -0.043301 0.003000
v -0.019134 -0.046194 0.003000
v -0.012941 -0.048296 0.003000
v -0.006526 -0.049572 0.003000
v -0.000000 -0.050000 0.003000
v 0.006526 -0.049572 0.003000
v 0.012941 -0.048296 0.003000
v 0.019134 -0.046194 0.003000
v 0.025000 -0.043301 0.003000
v 0.030438 -0.039668 0.003000
v 0.035355 -0.035355 0.003000
v 0.039668 -0.030438 0.003000
v 0.043301 -0.025000 0.003000
v 0.046194 -0.019134 0.003000
v 0.048296 -0.012941 0.003000
v 0.049572 -0.006526 0.003000
v 0.044000 0.000000 0.000000
v 0.043624 0.005743 0.000000
v 0.042501 0.011388 0.000000
v 0.040651 0.016838 0.000000
v 0.038105 0.022000 0.000000
v 0.034908 0.026786 0.000000
v 0.031113 0.031113 0.000000
v 0.026786 0.034908 0.000000
v 0.022000 0.038105 0.000000
v 0.016838 0.040651 0.000000
v 0.011388 0.042501 0.000000
v 0.005743 0.043624 0.000000
v 0.000000 0.044000 0.000000
v -0.005743 0.043624 0.000000
v -0.011388 0.042501 0.000000
v -0.016838 0.040651 0.000000
v -0.022000 0.038105 0.000000
v -0.026786 0.034908 0.000000
v -0.031113 0.031113 0.000000
v -0.034908 0.026786 0.000000
v -0.038105 0.022000 0.000000
v -0.040651 0.016838 0.000000
v -0.042501 0.011388 0.000000
v -0.043624 0.005743 0.000000
v -0.044000 0.000000 0.000000
v -0.043624 -0.005743 0.000000
v -0.042501 -0.011388 0.000000
v -0.040651 -0.016838 0.000000
v -0.038105 -0.022000 0.000000
v -0.034908 -0.026786 0.000000
v -0.031113 -0.031113 0.000000
v -0.026786 -0.034908 0.000000
v -0.022000 -0.038105 0.000000
v -0.016838 -0.040651 0.000000
v -0.011388 -0.042501 0.000000
v -0.005743 -0.043624 0.000000
v -0.000000 -0.044000 0.000000
v 0.005743 -0.043624 0.000000
v 0.011388 -0.042501 0.000000
v 0.016838 -0.040651 0.000000
v 0.022000 -0.038105 0.000000
v 0.026786 -0.034908 0.000000
v 0.031113 -0.031113 0.000000
v 0.034908 -0.026786 0.000000
v 0.038105 -0.022000 0.000000
v 0.040651 -0.016838 0.000000
v 0.042501 -0.011388 0.000000
v 0.043624 -0.005743 0.000000
v 0.030000 0.000000 0.000000
v 0.029743 0.003916 0.000000
v 0.028978 0.007765 0.000000
v 0.027716 0.011481 0.000000
v 0.025981 0.015000 0.000000
v 0.023801 0.018263 0.000000
v 0.021213 0.021213 0.000000
v 0.018263 0.023801 0.000000
v 0.015000 0.025981 0.000000
v 0.011481 0.027716 0.000000
v 0.007765 0.028978 0.000000
v 0.003916 0.029743 0.000000
v 0.000000 0.030000 0.000000
v -0.003916 0.029743 0.000000
v -0.007765 0.028978 0.000000
v -0.011481 0.027716 0.000000
v -0.015000 0.025981 0.000000
v -0.018263 0.023801 0.000000
v -0.021213 0.021213 0.000000
v -0.023801 0.018263 0.000000
v -0.025981 0.015000 0.000000
v -0.027716 0.011481 0.000000
v -0.028978 0.007765 0.000000
v -0.029743 0.003916 0.000000
v -0.030000 0.000000 0.000000
v -0.029743 -0.003916 0.000000
v -0.028978 -0.007765 0.000000
v -0.027716 -0.011481 0.000000
v -0.025981 -0.015000 0.000000
v -0.023801 -0.018263 0.000000
v -0.021213 -0.021213 0.000000
v -0.018263 -0.023801 0.000000
v -0.015000 -0.025981 0.000000
v -0.011481 -0.027716 0.000000
v -0.007765 -0.028978 0.000000
v -0.003916 -0.029743 0.000000
v -0.000000 -0.030000 0.000000
v 0.003916 -0.029743 0.000000
v 0.007765 -0.028978 0.000000
v 0.011481 -0.027716 0.000000
v 0.015000 -0.025981 0.000000
v 0.018263 -0.023801 0.000000
v 0.021213 -0.021213 0.000000
v 0.023801 -0.018263 0.000000
v 0.025981 -0.015000 0.000000
v 0.027716 -0.011481 0.000000
v 0.028978 -0.007765 0.000000
v 0.029743 -0.003916 0.000000
v 0.000000 0.000000 0.000000
vn 0.000000 0.000000 1.000000
vn 0.817403 0.017858 -0.575790
vn 0.808079 0.124398 -0.575790
vn 0.784928 0.228809 -0.575790
vn 0.748348 0.329306 -0.575790
vn 0.698962 0.424167 -0.575790
vn 0.637618 0.511771 -0.575790
vn 0.565363 0.590619 -0.575790
vn 0.483435 0.659361 -0.575790
vn 0.393236 0.716821 -0.575790
vn 0.296307 0.762016 -0.575790
vn 0.194309 0.794173 -0.575790
vn 0.088987 0.812741 -0.575790
vn -0.017858 0.817403 -0.575790
vn -0.124398 0.808079 -0.575790
vn -0.228809 0.784928 -0.575790
vn -0.329306 0.748348 -0.575790
vn -0.424167 0.698962 -0.575790
vn -0.511771 0.637618 -0.575790
vn -0.590619 0.565363 -0.575790
vn -0.659361 0.483435 -0.575790
vn -0.716821 0.393236 -0.575790
vn -0.762016 0.296307 -0.575790
vn -0.794173 0.194309 -0.575790
vn -0.812741 0.088987 -0.575790
vn -0.817403 -0.017858 -0.575790
vn -0.808079 -0.124398 -0.575790
vn -0.784928 -0.228809 -0.575790
vn -0.748348 -0.329306 -0.575790
vn -0.698962 -0.424167 -0.575790
vn -0.637618 -0.511771 -0.575790
vn -0.565363 -0.590619 -0.575790
vn -0.483435 -0.659361 -0.575790
vn -0.393236 -0.716821 -0.575790
vn -0.296307 -0.762016 -0.575790
vn -0.194309 -0.794173 -0.575790
vn -0.088987 -0.812741 -0.575790
vn 0.017858 -0.817403 -0.575790
vn 0.124398 -0.808079 -0.575790
vn 0.228809 -0.784928 -0.575790
vn 0.329306 -0.748348 -0.575790
vn 0.424167 -0.698962 -0.575790
vn 0.511771 -0.637618 -0.575790
vn 0.590619 -0.565363 -0.575790
vn 0.659361 -0.483435 -0.575790
vn 0.716821 -0.393236 -0.575790
vn 0.762016 -0.296307 -0.575790
vn 0.794173 -0.194309 -0.575790
vn 0.812741 -0.088987 -0.575790
vn 0.434801 0.001365 -0.900525
vn 0.430903 0.058106 -0.900525
vn 0.419633 0.113853 -0.900525
vn 0.401182 0.167652 -0.900525
vn 0.375867 0.218583 -0.900525
vn 0.344120 0.265773 -0.900525
vn 0.306486 0.308416 -0.900525
vn 0.263607 0.345782 -0.900525
vn 0.216219 0.377232 -0.900525
vn 0.165130 0.402226 -0.900525
vn 0.111216 0.420339 -0.900525
vn 0.055400 0.431260 -0.900525
vn -0.001365 0.434801 -0.900525
vn -0.058106 0.430903 -0.900525
vn -0.113853 0.419633 -0.900525
vn -0.167652 0.401182 -0.900525
vn -0.218583 0.375867 -0.900525
vn -0.265773 0.344120 -0.900525
vn -0.308416 0.306486 -0.900525
vn -0.345782 0.263607 -0.900525
vn -0.377232 0.216219 -0.900525
vn -0.402226 0.165130 -0.900525
vn -0.420339 0.111216 -0.900525
vn -0.431260 0.055400 -0.900525
vn -0.434801 -0.001365 -0.900525
vn -0.430903 -0.058106 -0.900525
vn -0.419633 -0.113853 -0.900525
vn -0.401182 -0.167652 -0.900525
vn -0.375867 -0.218583 -0.900525
vn -0.344120 -0.265773 -0.900525
vn -0.306486 -0.308416 -0.900525
vn -0.263607 -0.345782 -0.900525
vn -0.216219 -0.377232 -0.900525
vn -0.165130 -0.402226 -0.900525
vn -0.111216 -0.420339 -0.900525
vn -0.055400 -0.431260 -0.900525
vn 0.001365 -0.434801 -0.900525
vn 0.058106 -0.430903 -0.900525
vn 0.113853 -0.419633 -0.900525
vn 0.167652 -0.401182 -0.900525
vn 0.218583 -0.375867 -0.900525
vn 0.265773 -0.344120 -0.900525
vn 0.308416 -0.306486 -0.900525
vn 0.345782 -0.263607 -0.900525
vn 0.377232 -0.216219 -0.900525
vn 0.402226 -0.165130 -0.900525
vn 0.420339 -0.111216 -0.900525
vn 0.431260 -0.055400 -0.900525
vn -0.132509 -0.016537 -0.991044
vn -0.129217 -0.033691 -0.991044
vn -0.123714 -0.050269 -0.991044
vn -0.116094 -0.065987 -0.991044
vn -0.106488 -0.080576 -0.991044
vn -0.095060 -0.093786 -0.991044
vn -0.082005 -0.105391 -0.991044
vn -0.067547 -0.115193 -0.991044
vn -0.051933 -0.123024 -0.991044
vn -0.035431 -0.128751 -0.991044
vn -0.018323 -0.132274 -0.991044
vn -0.000901 -0.133534 -0.991044
vn 0.016537 -0.132509 -0.991044
vn 0.033691 -0.129217 -0.991044
vn 0.050269 -0.123714 -0.991044
vn 0.065987 -0.116094 -0.991044
vn 0.080576 -0.106488 -0.991044
vn 0.093786 -0.095060 -0.991044
vn 0.105391 -0.082005 -0.991044
vn 0.115193 -0.067547 -0.991044
vn 0.123024 -0.051933 -0.991044
vn 0.128751 -0.035431 -0.991044
vn 0.132274 -0.018323 -0.991044
vn 0.133534 -0.000901 -0.991044
vn 0.132509 0.016537 -0.991044
vn 0.129217 0.033691 -0.991044
vn 0.123714 0.050269 -0.991044
vn 0.116094 0.065987 -0.991044
vn 0.106488 0.080576 -0.991044
vn 0.095060 0.093786 -0.991044
vn 0.082005 0.105391 -0.991044
vn 0.067547 0.115193 -0.991044
vn 0.051933 0.123024 -0.991044
vn 0.035431 0.128751 -0.991044
vn 0.018323 0.132274 -0.991044
vn 0.000901 0.133534 -0.991044
vn -0.016537 0.132509 -0.991044
vn -0.033691 0.129217 -0.991044
vn -0.050269 0.123714 -0.991044
vn -0.065987 0.116094 -0.991044
vn -0.080576 0.106488 -0.991044
vn -0.093786 0.095060 -0.991044
vn -0.105391 0.082005 -0.991044
vn -0.115193 0.067547 -0.991044
vn -0.123024 0.051933 -0.991044
vn -0.128751 0.035431 -0.991044
vn -0.132274 0.018323 -0.991044
vn -0.133534 0.000901 -0.991044
vn -0.923789 -0.003452 -0.382886
vn -0.915435 -0.124001 -0.382886
vn -0.891418 -0.242429 -0.382886
vn -0.852149 -0.356708 -0.382886
vn -0.798299 -0.464884 -0.382886
vn -0.730790 -0.565106 -0.382886
vn -0.650776 -0.655659 -0.382886
vn -0.559628 -0.734993 -0.382886
vn -0.458905 -0.801751 -0.382886
vn -0.350329 -0.854791 -0.382886
vn -0.235760 -0.893205 -0.382886
vn -0.117156 -0.916337 -0.382886
vn 0.003452 -0.923789 -0.382886
vn 0.124001 -0.915435 -0.382886
vn 0.242429 -0.891418 -0.382886
vn 0.356708 -0.852149 -0.382886
vn 0.464884 -0.798299 -0.382886
vn 0.565106 -0.730790 -0.382886
vn 0.655659 -0.650776 -0.382886
vn 0.734993 -0.559628 -0.382886
vn 0.801751 -0.458905 -0.382886
vn 0.854791 -0.350329 -0.382886
vn 0.893205 -0.235760 -0.382886
vn 0.916337 -0.117156 -0.382886
vn 0.923789 0.003452 -0.382886
vn 0.915435 0.124001 -0.382886
vn 0.891418 0.242429 -0.382886
vn 0.852149 0.356708 -0.382886
vn 0.798299 0.464884 -0.382886
vn 0.730790 0.565106 -0.382886
vn 0.650776 0.655659 -0.382886
vn 0.559628 0.734993 -0.382886
vn 0.458905 0.801751 -0.382886
vn 0.350329 0.854791 -0.382886
vn 0.235760 0.893205 -0.382886
vn 0.117156 0.916337 -0.382886
vn -0.003452 0.923789 -0.382886
vn -0.124001 0.915435 -0.382886
vn -0.242429 0.891418 -0.382886
vn -0.356708 0.852149 -0.382886
vn -0.464884 0.798299 -0.382886
vn -0.565106 0.730790 -0.382886
vn -0.655659 0.650776 -0.382886
vn -0.734993 0.559628 -0.382886
vn -0.801751 0.458905 -0.382886
vn -0.854791 0.350329 -0.382886
vn -0.893205 0.235760 -0.382886
vn -0.916337 0.117156 -0.382886
vn -0.850351 0.007083 0.526168
vn -0.844001 -0.103971 0.526168
vn -0.823209 -0.213246 0.526168
vn -0.788332 -0.318872 0.526168
vn -0.739967 -0.419042 0.526168
vn -0.678940 -0.512042 0.526168
vn -0.606297 -0.596281 0.526168
vn -0.523280 -0.670317 0.526168
vn -0.431309 -0.732884 0.526168
vn -0.331959 -0.782911 0.526168
vn -0.226928 -0.819543 0.526168
vn -0.118015 -0.842152 0.526168
vn -0.007083 -0.850351 0.526168
vn 0.103971 -0.844001 0.526168
vn 0.213246 -0.823209 0.526168
vn 0.318872 -0.788332 0.526168
vn 0.419042 -0.739967 0.526168
vn 0.512042 -0.678940 0.526168
vn 0.596281 -0.606297 0.526168
vn 0.670317 -0.523280 0.526168
vn 0.732884 -0.431309 0.526168
vn 0.782911 -0.331959 0.526168
vn 0.819543 -0.226928 0.526168
vn 0.842152 -0.118015 0.526168
vn 0.850351 -0.007083 0.526168
vn 0.844001 0.103971 0.526168
vn 0.823209 0.213246 0.526168
vn 0.788332 0.318872 0.526168
vn 0.739967 0.419042 0.526168
vn 0.678940 0.512042 0.526168
vn 0.606297 0.596281 0.526168
vn 0.523280 0.670317 0.526168
vn 0.431309 0.732884 0.526168
vn 0.331959 0.782911 0.526168
vn 0.226928 0.819543 0.526168
vn 0.118015 0.842152 0.526168
vn 0.007083 0.850351 0.526168
vn -0.103971 0.844001 0.526168
vn -0.213246 0.823209 0.526168
vn -0.318872 0.788332 0.526168
vn -0.419042 0.739967 0.526168
vn -0.512042 0.678940 0.526168
vn -0.596281 0.606297 0.526168
vn -0.670317 0.523280 0.526168
vn -0.732884 0.431309 0.526168
vn -0.782911 0.331959 0.526168
vn -0.819543 0.226928 0.526168
vn -0.842152 0.118015 0.526168
vn -0.229701 0.005018 0.973248
vn -0.228391 -0.025006 0.973248
vn -0.223173 -0.054603 0.973248
vn -0.214136 -0.083266 0.973248
vn -0.201436 -0.110504 0.973248
vn -0.185289 -0.135852 0.973248
vn -0.165972 -0.158874 0.973248
vn -0.143814 -0.179179 0.973248
vn -0.119196 -0.196417 0.973248
vn -0.092539 -0.210295 0.973248
vn -0.064298 -0.220575 0.973248
vn -0.034957 -0.227081 0.973248
vn -0.005018 -0.229701 0.973248
vn 0.025006 -0.228391 0.973248
vn 0.054603 -0.223173 0.973248
vn 0.083266 -0.214136 0.973248
vn 0.110504 -0.201436 0.973248
vn 0.135852 -0.185289 0.973248
vn 0.158874 -0.165972 0.973248
vn 0.179179 -0.143814 0.973248
vn 0.196417 -0.119196 0.973248
vn 0.210295 -0.092539 0.973248
vn 0.220575 -0.064298 0.973248
vn 0.227081 -0.034957 0.973248
vn 0.229701 -0.005018 0.973248
vn 0.228391 0.025006 0.973248
vn 0.223173 0.054603 0.973248
vn 0.214136 0.083266 0.973248
vn 0.201436 0.110504 0.973248
vn 0.185289 0.135852 0.973248
vn 0.165972 0.158874 0.973248
vn 0.143814 0.179179 0.973248
vn 0.119196 0.196417 0.973248
vn 0.092539 0.210295 0.973248
vn 0.064298 0.220575 0.973248
vn 0.034957 0.227081 0.973248
vn 0.005018 0.229701 0.973248
vn -0.025006 0.228391 0.973248
vn -0.054603 0.223173 0.973248
vn -0.083266 0.214136 0.973248
vn -0.110504 0.201436 0.973248
vn -0.135852 0.185289 0.973248
vn -0.158874 0.165972 0.973248
vn -0.179179 0.143814 0.973248
vn -0.196417 0.119196 0.973248
vn -0.210295 0.092539 0.973248
vn -0.220575 0.064298 0.973248
vn -0.227081 0.034957 0.973248
vn 0.000000 0.000000 1.000000
vn 0.000000 0.000000 1.000000
vn 0.000000 0.000000 1.000000
vn 0.000000 0.000000 1.000000
vn 0.000000 0.000000 1.000000
vn 0.000000 0.000000 1.000000
vn 0.000000 0.000000 1.000000
vn 0.000000 0.000000 1.000000
vn 0.000000 0.000000 1.000000
vn 0.000000 0.000000 1.000000
vn 0.000000 0.000000 1.000000
vn 0.000000 0.000000 1.000000
vn 0.000000 0.000000 1.000000
vn 0.000000 0.000000 1.000000
vn 0.000000 0.000000 1.000000
vn 0.000000 0.000000 1.000000
vn 0.000000 0.000000 1.000000
vn 0.000000 0.000000 1.000000
vn 0.000000 0.000000 1.000000
vn 0.000000 0.000000 1.000000
vn 0.000000 0.000000 1.000000
vn 0.000000 0.000000 1.000000
vn 0.000000 0.000000 1.000000
vn 0.000000 0.000000 1.000000
vn 0.000000 0.000000 1.000000
vn 0.000000 0.000000 1.000000
vn 0.000000 0.000000 1.000000
vn 0.000000 0.000000 1.000000
vn 0.000000 0.000000 1.000000
vn 0.000000 0.000000 1.000000
vn 0.000000 0.000000 1.000000
vn 0.000000 0.000000 1.000000
vn 0.000000 0.000000 1.000000
vn 0.000000 0.000000 1.000000
vn 0.000000 0.000000 1.000000
vn 0.000000 0.000000 1.000000
vn 0.000000 0.000000 1.000000
vn 0.000000 0.000000 1.000000
vn 0.000000 0.000000 1.000000
vn 0.000000 0.000000 1.000000
vn 0.000000 0.000000 1.000000
vn 0.000000 0.000000 1.000000
vn 0.000000 0.000000 1.000000
vn 0.000000 0.000000 1.000000
vn 0.000000 0.000000 1.000000
vn 0.000000 0.000000 1.000000
vn 0.000000 0.000000 1.000000
vn 0.000000 0.000000 1.000000
vn 0.000000 0.000000 -1.000000
f 1//1 2//2 3//3
f 1//1 3//3 4//4
f 1//1 4//4 5//5
f 1//1 5//5 6//6
f 1//1 6//6 7//7
f 1//1 7//7 8//8
f 1//1 8//8 9//9
f 1//1 9//9 10//10
f 1//1 10//10 11//11
f 1//1 11//11 12//12
f 1//1 12//12 13//13
f 1//1 13//13 14//14
f 1//1 14//14 15//15
f 1//1 15//15 16//16
f 1//1 16//16 17//17
f 1//1 17//17 18//18
f 1//1 18//18 19//19
f 1//1 19//19 20//20
f 1//1 20//20 21//21
f 1//1 21//21 22//22
f 1//1 22//22 23//23
f 1//1 23//23 24//24
f 1//1 24//24 25//25
f 1//1 25//25 26//26
f 1//1 26//26 27//27
f 1//1 27//27 28//28
f 1//1 28//28 29//29
f 1//1 29//29 30//30
f 1//1 30//30 31//31
f 1//1 31//31 32//32
f 1//1 32//32 33//33
f 1//1 33//33 34//34
f 1//1 34//34 35//35
f 1//1 35//35 36//36
f 1//1 36//36 37//37
f 1//1 37//37 38//38
f 1//1 38//38 39//39
f 1//1 39//39 40//40
f 1//1 40//40 41//41
f 1//1 41//41 42//42
f 1//1 42//42 43//43
f 1//1 43//43 44//44
f 1//1 44//44 45//45
f 1//1 45//45 46//46
f 1//1 46//46 47//47
f 1//1 47//47 48//48
f 1//1 48//48 49//49
f 1//1 49//49 2//2
f 2//2 3//3 51//51
f 2//2 51//51 50//50
f 3//3 4//4 52//52
f 3//3 52//52 51//51
f 4//4 5//5 53//53
f 4//4 53//53 52//52
f 5//5 6//6 54//54
f 5//5 54//54 53//53
f 6//6 7//7 55//55
f 6//6 55//55 54//54
f 7//7 8//8 56//56
f 7//7 56//56 55//55
f 8//8 9//9 57//57
f 8//8 57//57 56//56
f 9//9 10//10 58//58
f 9//9 58//58 57//57
f 10//10 11//11 59//59
f 10//10 59//59 58//58
f 11//11 12//12 60//60
f 11//11 60//60 59//59
f 12//12 13//13 61//61
f 12//12 61//61 60//60
f 13//13 14//14 62//62
f 13//13 62//62 61//61
f 14//14 15//15 63//63
f 14//14 63//63 62//62
f 15//15 16//16 64//64
f 15//15 64//64 63//63
f 16//16 17//17 65//65
f 16//16 65//65 64//64
f 17//17 18//18 66//66
f 17//17 66//66 65//65
f 18//18 19//19 67//67
f 18//18 67//67 66//66
f 19//19 20//20 68//68
f 19//19 68//68 67//67
f 20//20 21//21 69//69
f 20//20 69//69 68//68
f 21//21 22//22 70//70
f 21//21 70//70 69//69
f 22//22 23//23 71//71
f 22//22 71//71 70//70
f 23//23 24//24 72//72
f 23//23 72//72 71//71
f 24//24 25//25 73//73
f 24//24 73//73 72//72
f 25//25 26//26 74//74
f 25//25 74//74 73//73
f 26//26 27//27 75//75
f 26//26 75//75 74//74
f 27//27 28//28 76//76
f 27//27 76//76 75//75
f 28//28 29//29 77//77
f 28//28 77//77 76//76
f 29//29 30//30 78//78
f 29//29 78//78 77//77
f 30//30 31//31 79//79
f 30//30 79//79 78//78
f 31//31 32//32 80//80
f 31//31 80//80 79//79
f 32//32 33//33 81//81
f 32//32 81//81 80//80
f 33//33 34//34 82//82
f 33//33 82//82 81//81
f 34//34 35//35 83//83
f 34//34 83//83 82//82
f 35//35 36//36 84//84
f 35//35 84//84 83//83
f 36//36 37//37 85//85
f 36//36 85//85 84//84
f 37//37 38//38 86//86
f 37//37 86//86 85//85
f 38//38 39//39 87//87
f 38//38 87//87 86//86
f 39//39 40//40 88//88
f 39//39 88//88 87//87
f 40//40 41//41 89//89
f 40//40 89//89 88//88
f 41//41 42//42 90//90
f 41//41 90//90 89//89
f 42//42 43//43 91//91
f 42//42 91//91 90//90
f 43//43 44//44 92//92
f 43//43 92//92 91//91
f 44//44 45//45 93//93
f 44//44 93//93 92//92
f 45//45 46//46 94//94
f 45//45 94//94 93//93
f 46//46 47//47 95//95
f 46//46 95//95 94//94
f 47//47 48//48 96//96
f 47//47 96//96 95//95
f 48//48 49//49 97//97
f 48//48 97//97 96//96
f 49//49 2//2 50//50
f 49//49 50//50 97//97
f 50//50 51//51 99//99
f 50//50 99//99 98//98
f 51//51 52//52 100//100
f 51//51 100//100 99//99
f 52//52 53//53 101//101
f 52//52 101//101 100//100
f 53//53 54//54 102//102
f 53//53 102//102 101//101
f 54//54 55//55 103//103
f 54//54 103//103 102//102
f 55//55 56//56 104//104
f 55//55 104//104 103//103
f 56//56 57//57 105//105
f 56//56 105//105 104//104
f 57//57 58//58 106//106
f 57//57 106//106 105//105
f 58//58 59//59 107//107
f 58//58 107//107 106//106
f 59//59 60//60 108//108
f 59//59 108//108 107//107
f 60//60 61//61 109//109
f 60//60 109//109 108//108
f 61//61 62//62 110//110
f 61//61 110//110 109//109
f 62//62 63//63 111//111
f 62//62 111//111 110//110
f 63//63 64//64 112//112
f 63//63 112//112 111//111
f 64//64 65//65 113//113
f 64//64 113//113 112//112
f 65//65 66//66 114//114
f 65//65 114//114 113//113
f 66//66 67//67 115//115
f 66//66 115//115 114//114
f 67//67 68//68 116//116
f 67//67 116//116 115//115
f 68//68 69//69 117//117
f 68//68 117//117 116//116
f 69//69 70//70 118//118
f 69//69 118//118 117//117
f 70//70 71//71 119//119
f 70//70 119//119 118//118
f 71//71 72//72 120//120
f 71//71 120//120 119//119
f 72//72 73//73 121//121
f 72//72 121//121 120//120
f 73//73 74//74 122//122
f 73//73 122//122 121//121
f 74//74 75//75 123//123
f 74//74 123//123 122//122
f 75//75 76//76 124//124
f 75//75 124//124 123//123
f 76//76 77//77 125//125
f 76//76 125//125 124//124
f 77//77 78//78 126//126
f 77//77 126//126 125//125
f 78//78 79//79 127//127
f 78//78 127//127 126//126
f 79//79 80//80 128//128
f 79//79 128//128 127//127
f 80//80 81//81 129//129
f 80//80 129//129 128//128
f 81//81 82//82 130//130
f 81//81 130//130 129//129
f 82//82 83//83 131//131
f 82//82 131//131 130//130
f 83//83 84//84 132//132
f 83//83 132//132 131//131
f 84//84 85//85 133//133
f 84//84 133//133 132//132
f 85//85 86//86 134//134
f 85//85 134//134 133//133
f 86//86 87//87 135//135
f 86//86 135//135 134//134
f 87//87 88//88 136//136
f 87//87 136//136 135//135
f 88//88 89//89 137//137
f 88//88 137//137 136//136
f 89//89 90//90 138//138
f 89//89 138//138 137//137
f 90//90 91//91 139//139
f 90//90 139//139 138//138
f 91//91 92//92 140//140
f 91//91 140//140 139//139
f 92//92 93//93 141//141
f 92//92 141//141 140//140
f 93//93 94//94 142//142
f 93//93 142//142 141//141
f 94//94 95//95 143//143
f 94//94 143//143 142//142
f 95//95 96//96 144//144
f 95//95 144//144 143//143
f 96//96 97//97 145//145
f 96//96 145//145 144//144
f 97//97 50//50 98//98
f 97//97 98//98 145//145
f 98//98 99//99 147//147
f 98//98 147//147 146//146
f 99//99 100//100 148//148
f 99//99 148//148 147//147
f 100//100 101//101 149//149
f 100//100 149//149 148//148
f 101//101 102//102 150//150
f 101//101 150//150 149//149
f 102//102 103//103 151//151
f 102//102 151//151 150//150
f 103//103 104//104 152//152
f 103//103 152//152 151//151
f 104//104 105//105 153//153
f 104//104 153//153 152//152
f 105//105 106//106 154//154
f 105//105 154//154 153//153
f 106//106 107//107 155//155
f 106//106 155//155 154//154
f 107//107 108//108 156//156
f 107//107 156//156 155//155
f 108//108 109//109 157//157
f 108//108 157//157 156//156
f 109//109 110//110 158//158
f 109//109 158//158 157//157
f 110//110 111//111 159//159
f 110//110 159//159 158//158
f 111//111 112//112 160//160
f 111//111 160//160 159//159
f 112//112 113//113 161//161
f 112//112 161//161 160//160
f 113//113 114//114 162//162
f 113//113 162//162 161//161
f 114//114 115//115 163//163
f 114//114 163//163 162//162
f 115//115 116//116 164//164
f 115//115 164//164 163//163
f 116//116 117//117 165//165
f 116//116 165//165 164//164
f 117//117 118//118 166//166
f 117//117 166//166 165//165
f 118//118 119//119 167//167
f 118//118 167//167 166//166
f 119//119 120//120 168//168
f 119//119 168//168 167//167
f 120//120 121//121 169//169
f 120//120 169//169 168//168
f 121//121 122//122 170//170
f 121//121 170//170 169//169
f 122//122 123//123 171//171
f 122//122 171//171 170//170
f 123//123 124//124 172//172
f 123//123 172//172 171//171
f 124//124 125//125 173//173
f 124//124 173//173 172//172
f 125//125 126//126 174//174
f 125//125 174//174 173//173
f 126//126 127//127 175//175
f 126//126 175//175 174//174
f 127//127 128//128 176//176
f 127//127 176//176 175//175
f 128//128 129//129 177//177
f 128//128 177//177 176//176
f 129//129 130//130 178//178
f 129//129 178//178 177//177
f 130//130 131//131 179//179
f 130//130 179//179 178//178
f 131//131 132//132 180//180
f 131//131 180//180 179//179
f 132//132 133//133 181//181
f 132//132 181//181 180//180
f 133//133 134//134 182//182
f 133//133 182//182 181//181
f 134//134 135//135 183//183
f 134//134 183//183 182//182
f 135//135 136//136 184//184
f 135//135 184//184 183//183
f 136//136 137//137 185//185
f 136//136 185//185 184//184
f 137//137 138//138 186//186
f 137//137 186//186 185//185
f 138//138 139//139 187//187
f 138//138 187//187 186//186
f 139//139 140//140 188//188
f 139//139 188//188 187//187
f 140//140 141//141 189//189
f 140//140 189//189 188//188
f 141//141 142//142 190//190
f 141//141 190//190 189//189
f 142//142 143//143 191//191
f 142//142 191//191 190//190
f 143//143 144//144 192//192
f 143//143 192//192 191//191
f 144//144 145//145 193//193
f 144//144 193//193 192//192
f 145//145 98//98 146//146
f 145//145 146//146 193//193
f 146//146 147//147 195//195
f 146//146 195//195 194//194
f 147//147 148//148 196//196
f 147//147 196//196 195//195
f 148//148 149//149 197//197
f 148//148 197//197 196//196
f 149//149 150//150 198//198
f 149//149 198//198 197//197
f 150//150 151//151 199//199
f 150//150 199//199 198//198
f 151//151 152//152 200//200
f 151//151 200//200 199//199
f 152//152 153//153 201//201
f 152//152 201//201 200//200
f 153//153 154//154 202//202
f 153//153 202//202 201//201
f 154//154 155//155 203//203
f 154//154 203//203 202//202
f 155//155 156//156 204//204
f 155//155 204//204 203//203
f 156//156 157//157 205//205
f 156//156 205//205 204//204
f 157//157 158//158 206//206
f 157//157 206//206 205//205
f 158//158 159//159 207//207
f 158//158 207//207 206//206
f 159//159 160//160 208//208
f 159//159 208//208 207//207
f 160//160 161//161 209//209
f 160//160 209//209 208//208
f 161//161 162//162 210//210
f 161//161 210//210 209//209
f 162//162 163//163 211//211
f 162//162 211//211 210//210
f 163//163 164//164 212//212
f 163//163 212//212 211//211
f 164//164 165//165 213//213
f 164//164 213//213 212//212
f 165//165 166//166 214//214
f 165//165 214//214 213//213
f 166//166 167//167 215//215
f 166//166 215//215 214//214
f 167//167 168//168 216//216
f 167//167 216//216 215//215
f 168//168 169//169 217//217
f 168//168 217//217 216//216
f 169//169 170//170 218//218
f 169//169 218//218 217//217
f 170//170 171//171 219//219
f 170//170 219//219 218//218
f 171//171 172//172 220//220
f 171//171 220//220 219//219
f 172//172 173//173 221//221
f 172//172 221//221 220//220
f 173//173 174//174 222//222
f 173//173 222//222 221//221
f 174//174 175//175 223//223
f 174//174 223//223 222//222
f 175//175 176//176 224//224
f 175//175 224//224 223//223
f 176//176 177//177 225//225
f 176//176 225//225 224//224
f 177//177 178//178 226//226
f 177//177 226//226 225//225
f 178//178 179//179 227//227
f 178//178 227//227 226//226
f 179//179 180//180 228//228
f 179//179 228//228 227//227
f 180//180 181//181 229//229
f 180//180 229//229 228//228
f 181//181 182//182 230//230
f 181//181 230//230 229//229
f 182//182 183//183 231//231
f 182//182 231//231 230//230
f 183//183 184//184 232//232
f 183//183 232//232 231//231
f 184//184 185//185 233//233
f 184//184 233//233 232//232
f 185//185 186//186 234//234
f 185//185 234//234 233//233
f 186//186 187//187 235//235
f 186//186 235//235 234//234
f 187//187 188//188 236//236
f 187//187 236//236 235//235
f 188//188 189//189 237//237
f 188//188 237//237 236//236
f 189//189 190//190 238//238
f 189//189 238//238 237//237
f 190//190 191//191 239//239
f 190//190 239//239 238//238
f 191//191 192//192 240//240
f 191//191 240//240 239//239
f 192//192 193//193 241//241
f 192//192 241//241 240//240
f 193//193 146//146 194//194
f 193//193 194//194 241//241
f 194//194 195//195 243//243
f 194//194 243//243 242//242
f 195//195 196//196 244//244
f 195//195 244//244 243//243
f 196//196 197//197 245//245
f 196//196 245//245 244//244
f 197//197 198//198 246//246
f 197//197 246//246 245//245
f 198//198 199//199 247//247
f 198//198 247//247 246//246
f 199//199 200//200 248//248
f 199//199 248//248 247//247
f 200//200 201//201 249//249
f 200//200 249//249 248//248
f 201//201 202//202 250//250
f 201//201 250//250 249//249
f 202//202 203//203 251//251
f 202//202 251//251 250//250
f 203//203 204//204 252//252
f 203//203 252//252 251//251
f 204//204 205//205 253//253
f 204//204 253//253 252//252
f 205//205 206//206 254//254
f 205//205 254//254 253//253
f 206//206 207//207 255//255
f 206//206 255//255 254//254
f 207//207 208//208 256//256
f 207//207 256//256 255//255
f 208//208 209//209 257//257
f 208//208 257//257 256//256
f 209//209 210//210 258//258
f 209//209 258//258 257//257
f 210//210 211//211 259//259
f 210//210 259//259 258//258
f 211//211 212//212 260//260
f 211//211 260//260 259//259
f 212//212 213//213 261//261
f 212//212 261//261 260//260
f 213//213 214//214 262//262
f 213//213 262//262 261//261
f 214//214 215//215 263//263
f 214//214 263//263 262//262
f 215//215 216//216 264//264
f 215//215 264//264 263//263
f 216//216 217//217 265//265
f 216//216 265//265 264//264
f 217//217 218//218 266//266
f 217//217 266//266 265//265
f 218//218 219//219 267//267
f 218//218 267//267 266//266
f 219//219 220//220 268//268
f 219//219 268//268 267//267
f 220//220 221//221 269//269
f 220//220 269//269 268//268
f 221//221 222//222 270//270
f 221//221 270//270 269//269
f 222//222 223//223 271//271
f 222//222 271//271 270//270
f 223//223 224//224 272//272
f 223//223 272//272 271//271
f 224//224 225//225 273//273
f 224//224 273//273 272//272
f 225//225 226//226 274//274
f 225//225 274//274 273//273
f 226//226 227//227 275//275
f 226//226 275//275 274//274
f 227//227 228//228 276//276
f 227//227 276//276 275//275
f 228//228 229//229 277//277
f 228//228 277//277 276//276
f 229//229 230//230 278//278
f 229//229 278//278 277//277
f 230//230 231//231 279//279
f 230//230 279//279 278//278
f 231//231 232//232 280//280
f 231//231 280//280 279//279
f 232//232 233//233 281//281
f 232//232 281//281 280//280
f 233//233 234//234 282//282
f 233//233 282//282 281//281
f 234//234 235//235 283//283
f 234//234 283//283 282//282
f 235//235 236//236 284//284
f 235//235 284//284 283//283
f 236//236 237//237 285//285
f 236//236 285//285 284//284
f 237//237 238//238 286//286
f 237//237 286//286 285//285
f 238//238 239//239 287//287
f 238//238 287//287 286//286
f 239//239 240//240 288//288
f 239//239 288//288 287//287
f 240//240 241//241 289//289
f 240//240 289//289 288//288
f 241//241 194//194 242//242
f 241//241 242//242 289//289
f 242//242 243//243 291//291
f 242//242 291//291 290//290
f 243//243 244//244 292//292
f 243//243 292//292 291//291
f 244//244 245//245 293//293
f 244//244 293//293 292//292
f 245//245 246//246 294//294
f 245//245 294//294 293//293
f 246//246 247//247 295//295
f 246//246 295//295 294//294
f 247//247 248//248 296//296
f 247//247 296//296 295//295
f 248//248 249//249 297//297
f 248//248 297//297 296//296
f 249//249 250//250 298//298
f 249//249 298//298 297//297
f 250//250 251//251 299//299
f 250//250 299//299 298//298
f 251//251 252//252 300//300
f 251//251 300//300 299//299
f 252//252 253//253 301//301
f 252//252 301//301 300//300
f 253//253 254//254 302//302
f 253//253 302//302 301//301
f 254//254 255//255 303//303
f 254//254 303//303 302//302
f 255//255 256//256 304//304
f 255//255 304//304 303//303
f 256//256 257//257 305//305
f 256//256 305//305 304//304
f 257//257 258//258 306//306
f 257//257 306//306 305//305
f 258//258 259//259 307//307
f 258//258 307//307 306//306
f 259//259 260//260 308//308
f 259//259 308//308 307//307
f 260//260 261//261 309//309
f 260//260 309//309 308//308
f 261//261 262//262 310//310
f 261//261 310//310 309//309
f 262//262 263//263 311//311
f 262//262 311//311 310//310
f 263//263 264//264 312//312
f 263//263 312//312 311//311
f 264//264 265//265 313//313
f 264//264 313//313 312//312
f 265//265 266//266 314//314
f 265//265 314//314 313//313
f 266//266 267//267 315//315
f 266//266 315//315 314//314
f 267//267 268//268 316//316
f 267//267 316//316 315//315
f 268//268 269//269 317//317
f 268//268 317//317 316//316
f 269//269 270//270 318//318
f 269//269 318//318 317//317
f 270//270 271//271 319//319
f 270//270 319//319 318//318
f 271//271 272//272 320//320
f 271//271 320//320 319//319
f 272//272 273//273 321//321
f 272//272 321//321 320//320
f 273//273 274//274 322//322
f 273//273 322//322 321//321
f 274//274 275//275 323//323
f 274//274 323//323 322//322
f 275//275 276//276 324//324
f 275//275 324//324 323//323
f 276//276 277//277 325//325
f 276//276 325//325 324//324
f 277//277 278//278 326//326
f 277//277 326//326 325//325
f 278//278 279//279 327//327
f 278//278 327//327 326//326
f 279//279 280//280 328//328
f 279//279 328//328 327//327
f 280//280 281//281 329//329
f 280//280 329//329 328//328
f 281//281 282//282 330//330
f 281//281 330//330 329//329
f 282//282 283//283 331//331
f 282//282 331//331 330//330
f 283//283 284//284 332//332
f 283//283 332//332 331//331
f 284//284 285//285 333//333
f 284//284 333//333 332//332
f 285//285 286//286 334//334
f 285//285 334//334 333//333
f 286//286 287//287 335//335
f 286//286 335//335 334//334
f 287//287 288//288 336//336
f 287//287 336//336 335//335
f 288//288 289//289 337//337
f 288//288 337//337 336//336
f 289//289 242//242 290//290
f 289//289 290//290 337//337
f 290//290 338//338 291//291
f 291//291 338//338 292//292
f 292//292 338//338 293//293
f 293//293 338//338 294//294
f 294//294 338//338 295//295
f 295//295 338//338 296//296
f 296//296 338//338 297//297
f 297//297 338//338 298//298
f 298//298 338//338 299//299
f 299//299 338//338 300//300
f 300//300 338//338 301//301
f 301//301 338//338 302//302
f 302//302 338//338 303//303
f 303//303 338//338 304//304
f 304//304 338//338 305//305
f 305//305 338//338 306//306
f 306//306 338//338 307//307
f 307//307 338//338 308//308
f 308//308 338//338 309//309
f 309//309 338//338 310//310
f 310//310 338//338 311//311
f 311//311 338//338 312//312
f 312//312 338//338 313//313
f 313//313 338//338 314//314
f 314//314 338//338 315//315
f 315//315 338//338 316//316
f 316//316 338//338 317//317
f 317//317 338//338 318//318
f 318//318 338//338 319//319
f 319//319 338//338 320//320
f 320//320 338//338 321//321
f 321//321 338//338 322//322
f 322//322 338//338 323//323
f 323//323 338//338 324//324
f 324//324 338//338 325//325
f 325//325 338//338 326//326
f 326//326 338//338 327//327
f 327//327 338//338 328//328
f 328//328 338//338 329//329
f 329//329 338//338 330//330
f 330//330 338//338 331//331
f 331//331 338//338 332//332
f 332//332 338//338 333//333
f 333//333 338//338 334//334
f 334//334 338//338 335//335
f 335//335 338//338 336//336
f 336//336 338//338 337//337
f 337//337 338//338 290//290
